<?xml version="1.0" encoding="UTF-8" standalone="no"?>
<!DOCTYPE svg PUBLIC "-//W3C//DTD SVG 1.1//EN"
 "http://www.w3.org/Graphics/SVG/1.1/DTD/svg11.dtd">
<!-- Generated by graphviz version 2.43.0 (0)
 -->
<!-- Title: %3 Pages: 1 -->
<svg width="425pt" height="61pt"
 viewBox="0.00 0.00 306.00 44.00" xmlns="http://www.w3.org/2000/svg" xmlns:xlink="http://www.w3.org/1999/xlink">
<g id="graph0" class="graph" transform="scale(0.72 0.72) rotate(0) translate(4 40)">
<title>%3</title>
<polygon fill="white" stroke="transparent" points="-4,4 -4,-40 302,-40 302,4 -4,4"/>
<!-- 0.11 -->
<g id="node1" class="node">
<title>0.11</title>
<ellipse fill="none" stroke="black" cx="27" cy="-18" rx="27" ry="18"/>
<text text-anchor="middle" x="27" y="-16.1" font-family="Times,serif" font-size="8.00">0.11</text>
</g>
<!-- 0.11&#45;&gt;0.11 -->
<g id="edge1" class="edge">
<title>0.11&#45;&gt;0.11</title>
<path fill="none" stroke="black" d="M52.44,-24.69C63.03,-25.15 72,-22.92 72,-18 72,-14.77 68.14,-12.7 62.49,-11.79"/>
<polygon fill="black" stroke="black" points="62.6,-8.29 52.44,-11.31 62.27,-15.28 62.6,-8.29"/>
<text text-anchor="middle" x="79" y="-16.1" font-family="Times,serif" font-size="8.00">0.50</text>
</g>
<!-- 0.33 -->
<g id="node2" class="node">
<title>0.33</title>
<ellipse fill="none" stroke="black" cx="149" cy="-18" rx="27" ry="18"/>
<text text-anchor="middle" x="149" y="-16.1" font-family="Times,serif" font-size="8.00">0.33</text>
</g>
<!-- 0.11&#45;&gt;0.33 -->
<g id="edge2" class="edge">
<title>0.11&#45;&gt;0.33</title>
<path fill="none" stroke="black" d="M54.08,-18C71.06,-18 93.18,-18 111.79,-18"/>
<polygon fill="black" stroke="black" points="112,-21.5 122,-18 112,-14.5 112,-21.5"/>
<text text-anchor="middle" x="88" y="-23.6" font-family="Times,serif" font-size="8.00">0.50</text>
</g>
<!-- 0.33&#45;&gt;0.33 -->
<g id="edge3" class="edge">
<title>0.33&#45;&gt;0.33</title>
<path fill="none" stroke="black" d="M174.44,-24.69C185.03,-25.15 194,-22.92 194,-18 194,-14.77 190.14,-12.7 184.49,-11.79"/>
<polygon fill="black" stroke="black" points="184.6,-8.29 174.44,-11.31 184.27,-15.28 184.6,-8.29"/>
<text text-anchor="middle" x="201" y="-16.1" font-family="Times,serif" font-size="8.00">1.00</text>
</g>
<!-- 0.60 -->
<g id="node3" class="node">
<title>0.60</title>
<ellipse fill="none" stroke="black" cx="271" cy="-18" rx="27" ry="18"/>
<text text-anchor="middle" x="271" y="-16.1" font-family="Times,serif" font-size="8.00">0.60</text>
</g>
<!-- 0.33&#45;&gt;0.60 -->
<g id="edge4" class="edge">
<title>0.33&#45;&gt;0.60</title>
<path fill="none" stroke="black" d="M176.08,-18C193.06,-18 215.18,-18 233.79,-18"/>
<polygon fill="black" stroke="black" points="234,-21.5 244,-18 234,-14.5 234,-21.5"/>
<text text-anchor="middle" x="210" y="-23.6" font-family="Times,serif" font-size="8.00">0.00</text>
</g>
</g>
</svg>
