<?xml version="1.0" encoding="utf-8" standalone="no"?>
<!DOCTYPE svg PUBLIC "-//W3C//DTD SVG 1.1//EN"
  "http://www.w3.org/Graphics/SVG/1.1/DTD/svg11.dtd">
<svg xmlns:xlink="http://www.w3.org/1999/xlink" width="576pt" height="576pt" viewBox="0 0 576 576" xmlns="http://www.w3.org/2000/svg" version="1.1">
 <metadata>
  <rdf:RDF xmlns:dc="http://purl.org/dc/elements/1.1/" xmlns:cc="http://creativecommons.org/ns#" xmlns:rdf="http://www.w3.org/1999/02/22-rdf-syntax-ns#">
   <cc:Work>
    <dc:type rdf:resource="http://purl.org/dc/dcmitype/StillImage"/>
    <dc:date>2024-07-31T10:24:55.789584</dc:date>
    <dc:format>image/svg+xml</dc:format>
    <dc:creator>
     <cc:Agent>
      <dc:title>Matplotlib v3.9.1, https://matplotlib.org/</dc:title>
     </cc:Agent>
    </dc:creator>
   </cc:Work>
  </rdf:RDF>
 </metadata>
 <defs>
  <style type="text/css">*{stroke-linejoin: round; stroke-linecap: butt}</style>
 </defs>
 <g id="figure_1">
  <g id="patch_1">
   <path d="M 0 576 
L 576 576 
L 576 0 
L 0 0 
z
" style="fill: #ffffff"/>
  </g>
  <g id="axes_1">
   <g id="PatchCollection_1">
    <defs>
     <path id="m94c07e2052" d="M 96 -432 
C 108.729749 -432 120.939834 -437.057583 129.941125 -446.058875 
C 138.942417 -455.060166 144 -467.270251 144 -480 
C 144 -492.729749 138.942417 -504.939834 129.941125 -513.941125 
C 120.939834 -522.942417 108.729749 -528 96 -528 
C 83.270251 -528 71.060166 -522.942417 62.058875 -513.941125 
C 53.057583 -504.939834 48 -492.729749 48 -480 
C 48 -467.270251 53.057583 -455.060166 62.058875 -446.058875 
C 71.060166 -437.057583 83.270251 -432 96 -432 
z
" style="stroke: #e6e6e6"/>
    </defs>
    <g clip-path="url(#p7a9beb1305)">
     <use xlink:href="#m94c07e2052" x="0" y="576" style="fill: #2693de; stroke: #e6e6e6"/>
    </g>
   </g>
   <g id="PatchCollection_2">
    <defs>
     <path id="m2dd57a0664" d="M 480 -432 
C 492.729749 -432 504.939834 -437.057583 513.941125 -446.058875 
C 522.942417 -455.060166 528 -467.270251 528 -480 
C 528 -492.729749 522.942417 -504.939834 513.941125 -513.941125 
C 504.939834 -522.942417 492.729749 -528 480 -528 
C 467.270251 -528 455.060166 -522.942417 446.058875 -513.941125 
C 437.057583 -504.939834 432 -492.729749 432 -480 
C 432 -467.270251 437.057583 -455.060166 446.058875 -446.058875 
C 455.060166 -437.057583 467.270251 -432 480 -432 
z
" style="stroke: #e6e6e6"/>
    </defs>
    <g clip-path="url(#p7a9beb1305)">
     <use xlink:href="#m2dd57a0664" x="0" y="576" style="fill: #2693de; stroke: #e6e6e6"/>
    </g>
   </g>
   <g id="PatchCollection_3">
    <defs>
     <path id="mf7da885d3d" d="M 480 -48 
C 492.729749 -48 504.939834 -53.057583 513.941125 -62.058875 
C 522.942417 -71.060166 528 -83.270251 528 -96 
C 528 -108.729749 522.942417 -120.939834 513.941125 -129.941125 
C 504.939834 -138.942417 492.729749 -144 480 -144 
C 467.270251 -144 455.060166 -138.942417 446.058875 -129.941125 
C 437.057583 -120.939834 432 -108.729749 432 -96 
C 432 -83.270251 437.057583 -71.060166 446.058875 -62.058875 
C 455.060166 -53.057583 467.270251 -48 480 -48 
z
" style="stroke: #e6e6e6"/>
    </defs>
    <g clip-path="url(#p7a9beb1305)">
     <use xlink:href="#mf7da885d3d" x="0" y="576" style="fill: #2693de; stroke: #e6e6e6"/>
    </g>
   </g>
   <g id="PatchCollection_4">
    <defs>
     <path id="m97d0193cde" d="M 96 -48 
C 108.729749 -48 120.939834 -53.057583 129.941125 -62.058875 
C 138.942417 -71.060166 144 -83.270251 144 -96 
C 144 -108.729749 138.942417 -120.939834 129.941125 -129.941125 
C 120.939834 -138.942417 108.729749 -144 96 -144 
C 83.270251 -144 71.060166 -138.942417 62.058875 -129.941125 
C 53.057583 -120.939834 48 -108.729749 48 -96 
C 48 -83.270251 53.057583 -71.060166 62.058875 -62.058875 
C 71.060166 -53.057583 83.270251 -48 96 -48 
z
" style="stroke: #e6e6e6"/>
    </defs>
    <g clip-path="url(#p7a9beb1305)">
     <use xlink:href="#m97d0193cde" x="0" y="576" style="fill: #2693de; stroke: #e6e6e6"/>
    </g>
   </g>
   <g id="PatchCollection_5">
    <defs>
     <path id="m9dc17f26de" d="M 436.8 -499.2 
L 408 -489.6 
L 408 -497.76 
L 144 -497.76 
L 144 -500.64 
L 408 -500.64 
L 408 -508.8 
z
" style="stroke: #a3a3a3"/>
    </defs>
    <g clip-path="url(#p7a9beb1305)">
     <use xlink:href="#m9dc17f26de" x="0" y="576" style="fill: #a3a3a3; stroke: #a3a3a3"/>
    </g>
   </g>
   <g id="PatchCollection_6">
    <defs>
     <path id="mea95824609" d="M 428.364675 -166.835325 
L 401.211775 -180.411775 
L 406.981766 -186.181766 
L 142.981766 -450.181766 
L 145.018234 -452.218234 
L 409.018234 -188.218234 
L 414.788225 -193.988225 
z
" style="stroke: #a3a3a3"/>
    </defs>
    <g clip-path="url(#p7a9beb1305)">
     <use xlink:href="#mea95824609" x="0" y="576" style="fill: #a3a3a3; stroke: #a3a3a3"/>
    </g>
   </g>
   <g id="PatchCollection_7">
    <path d="M 521.569219 72 
C 525.250363 65.624072 527.415712 58.485874 527.897228 51.13935 
C 528.378745 43.792826 527.163643 36.433061 524.346218 29.631195 
C 521.528792 22.829329 517.18386 16.765982 511.648599 11.911689 
C 506.113339 7.057396 499.534737 3.54106 492.423314 1.63556 
C 485.311891 -0.26994 477.856487 -0.514004 470.635665 0.922307 
C 463.414842 2.358617 456.620346 5.437163 450.779451 9.91904 
C 444.938556 14.400916 440.206365 20.167108 436.950108 26.770143 
C 433.693852 33.373177 432 40.637713 432 48 
L 434.88 48 
C 434.88 41.07945 436.472221 34.250787 439.533102 28.043934 
C 442.593983 21.837082 447.042243 16.416861 452.532684 12.203897 
C 458.023126 7.990934 464.409951 5.0971 471.197525 3.746968 
C 477.985098 2.396836 484.993178 2.626257 491.677915 4.417427 
C 498.362653 6.208597 504.546538 9.513952 509.749683 14.076988 
C 514.952828 18.640023 519.037065 24.339569 521.685445 30.733324 
C 524.333824 37.127078 525.47602 44.045257 525.023395 50.950989 
C 524.570769 57.856721 522.535341 64.566628 519.075066 70.56 
z
" clip-path="url(#p7a9beb1305)" style="fill: #a3a3a3; stroke: #a3a3a3"/>
    <path d="M 414.24 48 
L 452.64 48 
L 433.44 62.4 
z
" clip-path="url(#p7a9beb1305)" style="fill: #a3a3a3; stroke: #a3a3a3"/>
   </g>
   <g id="PatchCollection_8">
    <defs>
     <path id="m7c88fb7c44" d="M 460.8 -139.2 
L 451.2 -168 
L 459.36 -168 
L 459.36 -432 
L 462.24 -432 
L 462.24 -168 
L 470.4 -168 
z
" style="stroke: #a3a3a3"/>
    </defs>
    <g clip-path="url(#p7a9beb1305)">
     <use xlink:href="#m7c88fb7c44" x="0" y="576" style="fill: #a3a3a3; stroke: #a3a3a3"/>
    </g>
   </g>
   <g id="PatchCollection_9">
    <defs>
     <path id="m0b257e63ea" d="M 499.2 -436.8 
L 508.8 -408 
L 500.64 -408 
L 500.64 -144 
L 497.76 -144 
L 497.76 -408 
L 489.6 -408 
z
" style="stroke: #a3a3a3"/>
    </defs>
    <g clip-path="url(#p7a9beb1305)">
     <use xlink:href="#m0b257e63ea" x="0" y="576" style="fill: #a3a3a3; stroke: #a3a3a3"/>
    </g>
   </g>
   <g id="PatchCollection_10">
    <path d="M 438.430781 504 
C 434.749637 510.375928 432.584288 517.514126 432.102772 524.86065 
C 431.621255 532.207174 432.836357 539.566939 435.653782 546.368805 
C 438.471208 553.170671 442.81614 559.234018 448.351401 564.088311 
C 453.886661 568.942604 460.465263 572.45894 467.576686 574.36444 
C 474.688109 576.26994 482.143513 576.514004 489.364335 575.077693 
C 496.585158 573.641383 503.379654 570.562837 509.220549 566.08096 
C 515.061444 561.599084 519.793635 555.832892 523.049892 549.229857 
C 526.306148 542.626823 528 535.362287 528 528 
L 525.12 528 
C 525.12 534.92055 523.527779 541.749213 520.466898 547.956066 
C 517.406017 554.162918 512.957757 559.583139 507.467316 563.796103 
C 501.976874 568.009066 495.590049 570.9029 488.802475 572.253032 
C 482.014902 573.603164 475.006822 573.373743 468.322085 571.582573 
C 461.637347 569.791403 455.453462 566.486048 450.250317 561.923012 
C 445.047172 557.359977 440.962935 551.660431 438.314555 545.266676 
C 435.666176 538.872922 434.52398 531.954743 434.976605 525.049011 
C 435.429231 518.143279 437.464659 511.433372 440.924934 505.44 
z
" clip-path="url(#p7a9beb1305)" style="fill: #a3a3a3; stroke: #a3a3a3"/>
    <path d="M 507.36 528 
L 545.76 528 
L 526.56 513.6 
z
" clip-path="url(#p7a9beb1305)" style="fill: #a3a3a3; stroke: #a3a3a3"/>
   </g>
   <g id="PatchCollection_11">
    <defs>
     <path id="ma130e26f19" d="M 436.8 -115.2 
L 408 -105.6 
L 408 -113.76 
L 144 -113.76 
L 144 -116.64 
L 408 -116.64 
L 408 -124.8 
z
" style="stroke: #a3a3a3"/>
    </defs>
    <g clip-path="url(#p7a9beb1305)">
     <use xlink:href="#ma130e26f19" x="0" y="576" style="fill: #a3a3a3; stroke: #a3a3a3"/>
    </g>
   </g>
   <g id="text_1">
    <!-- 1262 -->
    <g transform="translate(65.385625 102.070625) scale(0.22 -0.22)">
     <defs>
      <path id="DejaVuSans-Bold-31" d="M 750 831 
L 1813 831 
L 1813 3847 
L 722 3622 
L 722 4441 
L 1806 4666 
L 2950 4666 
L 2950 831 
L 4013 831 
L 4013 0 
L 750 0 
L 750 831 
z
" transform="scale(0.015625)"/>
      <path id="DejaVuSans-Bold-32" d="M 1844 884 
L 3897 884 
L 3897 0 
L 506 0 
L 506 884 
L 2209 2388 
Q 2438 2594 2547 2791 
Q 2656 2988 2656 3200 
Q 2656 3528 2436 3728 
Q 2216 3928 1850 3928 
Q 1569 3928 1234 3808 
Q 900 3688 519 3450 
L 519 4475 
Q 925 4609 1322 4679 
Q 1719 4750 2100 4750 
Q 2938 4750 3402 4381 
Q 3866 4013 3866 3353 
Q 3866 2972 3669 2642 
Q 3472 2313 2841 1759 
L 1844 884 
z
" transform="scale(0.015625)"/>
      <path id="DejaVuSans-Bold-36" d="M 2316 2303 
Q 2000 2303 1842 2098 
Q 1684 1894 1684 1484 
Q 1684 1075 1842 870 
Q 2000 666 2316 666 
Q 2634 666 2792 870 
Q 2950 1075 2950 1484 
Q 2950 1894 2792 2098 
Q 2634 2303 2316 2303 
z
M 3803 4544 
L 3803 3681 
Q 3506 3822 3243 3889 
Q 2981 3956 2731 3956 
Q 2194 3956 1894 3657 
Q 1594 3359 1544 2772 
Q 1750 2925 1990 3001 
Q 2231 3078 2516 3078 
Q 3231 3078 3670 2659 
Q 4109 2241 4109 1563 
Q 4109 813 3618 361 
Q 3128 -91 2303 -91 
Q 1394 -91 895 523 
Q 397 1138 397 2266 
Q 397 3422 980 4083 
Q 1563 4744 2578 4744 
Q 2900 4744 3203 4694 
Q 3506 4644 3803 4544 
z
" transform="scale(0.015625)"/>
     </defs>
     <use xlink:href="#DejaVuSans-Bold-31"/>
     <use xlink:href="#DejaVuSans-Bold-32" x="69.580078"/>
     <use xlink:href="#DejaVuSans-Bold-36" x="139.160156"/>
     <use xlink:href="#DejaVuSans-Bold-32" x="208.740234"/>
    </g>
   </g>
   <g id="text_2">
    <!-- 1595 -->
    <g style="fill: #ffffff" transform="translate(452.005 102.070625) scale(0.22 -0.22)">
     <defs>
      <path id="DejaVuSans-31" d="M 794 531 
L 1825 531 
L 1825 4091 
L 703 3866 
L 703 4441 
L 1819 4666 
L 2450 4666 
L 2450 531 
L 3481 531 
L 3481 0 
L 794 0 
L 794 531 
z
" transform="scale(0.015625)"/>
      <path id="DejaVuSans-35" d="M 691 4666 
L 3169 4666 
L 3169 4134 
L 1269 4134 
L 1269 2991 
Q 1406 3038 1543 3061 
Q 1681 3084 1819 3084 
Q 2600 3084 3056 2656 
Q 3513 2228 3513 1497 
Q 3513 744 3044 326 
Q 2575 -91 1722 -91 
Q 1428 -91 1123 -41 
Q 819 9 494 109 
L 494 744 
Q 775 591 1075 516 
Q 1375 441 1709 441 
Q 2250 441 2565 725 
Q 2881 1009 2881 1497 
Q 2881 1984 2565 2268 
Q 2250 2553 1709 2553 
Q 1456 2553 1204 2497 
Q 953 2441 691 2322 
L 691 4666 
z
" transform="scale(0.015625)"/>
      <path id="DejaVuSans-39" d="M 703 97 
L 703 672 
Q 941 559 1184 500 
Q 1428 441 1663 441 
Q 2288 441 2617 861 
Q 2947 1281 2994 2138 
Q 2813 1869 2534 1725 
Q 2256 1581 1919 1581 
Q 1219 1581 811 2004 
Q 403 2428 403 3163 
Q 403 3881 828 4315 
Q 1253 4750 1959 4750 
Q 2769 4750 3195 4129 
Q 3622 3509 3622 2328 
Q 3622 1225 3098 567 
Q 2575 -91 1691 -91 
Q 1453 -91 1209 -44 
Q 966 3 703 97 
z
M 1959 2075 
Q 2384 2075 2632 2365 
Q 2881 2656 2881 3163 
Q 2881 3666 2632 3958 
Q 2384 4250 1959 4250 
Q 1534 4250 1286 3958 
Q 1038 3666 1038 3163 
Q 1038 2656 1286 2365 
Q 1534 2075 1959 2075 
z
" transform="scale(0.015625)"/>
     </defs>
     <use xlink:href="#DejaVuSans-31"/>
     <use xlink:href="#DejaVuSans-35" x="63.623047"/>
     <use xlink:href="#DejaVuSans-39" x="127.246094"/>
     <use xlink:href="#DejaVuSans-35" x="190.869141"/>
    </g>
   </g>
   <g id="text_3">
    <!-- 2165 -->
    <g style="fill: #ffffff" transform="translate(452.005 486.070625) scale(0.22 -0.22)">
     <defs>
      <path id="DejaVuSans-32" d="M 1228 531 
L 3431 531 
L 3431 0 
L 469 0 
L 469 531 
Q 828 903 1448 1529 
Q 2069 2156 2228 2338 
Q 2531 2678 2651 2914 
Q 2772 3150 2772 3378 
Q 2772 3750 2511 3984 
Q 2250 4219 1831 4219 
Q 1534 4219 1204 4116 
Q 875 4013 500 3803 
L 500 4441 
Q 881 4594 1212 4672 
Q 1544 4750 1819 4750 
Q 2544 4750 2975 4387 
Q 3406 4025 3406 3419 
Q 3406 3131 3298 2873 
Q 3191 2616 2906 2266 
Q 2828 2175 2409 1742 
Q 1991 1309 1228 531 
z
" transform="scale(0.015625)"/>
      <path id="DejaVuSans-36" d="M 2113 2584 
Q 1688 2584 1439 2293 
Q 1191 2003 1191 1497 
Q 1191 994 1439 701 
Q 1688 409 2113 409 
Q 2538 409 2786 701 
Q 3034 994 3034 1497 
Q 3034 2003 2786 2293 
Q 2538 2584 2113 2584 
z
M 3366 4563 
L 3366 3988 
Q 3128 4100 2886 4159 
Q 2644 4219 2406 4219 
Q 1781 4219 1451 3797 
Q 1122 3375 1075 2522 
Q 1259 2794 1537 2939 
Q 1816 3084 2150 3084 
Q 2853 3084 3261 2657 
Q 3669 2231 3669 1497 
Q 3669 778 3244 343 
Q 2819 -91 2113 -91 
Q 1303 -91 875 529 
Q 447 1150 447 2328 
Q 447 3434 972 4092 
Q 1497 4750 2381 4750 
Q 2619 4750 2861 4703 
Q 3103 4656 3366 4563 
z
" transform="scale(0.015625)"/>
     </defs>
     <use xlink:href="#DejaVuSans-32"/>
     <use xlink:href="#DejaVuSans-31" x="63.623047"/>
     <use xlink:href="#DejaVuSans-36" x="127.246094"/>
     <use xlink:href="#DejaVuSans-35" x="190.869141"/>
    </g>
   </g>
   <g id="text_4">
    <!-- 3780 -->
    <g style="fill: #ffffff" transform="translate(68.005 486.070625) scale(0.22 -0.22)">
     <defs>
      <path id="DejaVuSans-33" d="M 2597 2516 
Q 3050 2419 3304 2112 
Q 3559 1806 3559 1356 
Q 3559 666 3084 287 
Q 2609 -91 1734 -91 
Q 1441 -91 1130 -33 
Q 819 25 488 141 
L 488 750 
Q 750 597 1062 519 
Q 1375 441 1716 441 
Q 2309 441 2620 675 
Q 2931 909 2931 1356 
Q 2931 1769 2642 2001 
Q 2353 2234 1838 2234 
L 1294 2234 
L 1294 2753 
L 1863 2753 
Q 2328 2753 2575 2939 
Q 2822 3125 2822 3475 
Q 2822 3834 2567 4026 
Q 2313 4219 1838 4219 
Q 1578 4219 1281 4162 
Q 984 4106 628 3988 
L 628 4550 
Q 988 4650 1302 4700 
Q 1616 4750 1894 4750 
Q 2613 4750 3031 4423 
Q 3450 4097 3450 3541 
Q 3450 3153 3228 2886 
Q 3006 2619 2597 2516 
z
" transform="scale(0.015625)"/>
      <path id="DejaVuSans-37" d="M 525 4666 
L 3525 4666 
L 3525 4397 
L 1831 0 
L 1172 0 
L 2766 4134 
L 525 4134 
L 525 4666 
z
" transform="scale(0.015625)"/>
      <path id="DejaVuSans-38" d="M 2034 2216 
Q 1584 2216 1326 1975 
Q 1069 1734 1069 1313 
Q 1069 891 1326 650 
Q 1584 409 2034 409 
Q 2484 409 2743 651 
Q 3003 894 3003 1313 
Q 3003 1734 2745 1975 
Q 2488 2216 2034 2216 
z
M 1403 2484 
Q 997 2584 770 2862 
Q 544 3141 544 3541 
Q 544 4100 942 4425 
Q 1341 4750 2034 4750 
Q 2731 4750 3128 4425 
Q 3525 4100 3525 3541 
Q 3525 3141 3298 2862 
Q 3072 2584 2669 2484 
Q 3125 2378 3379 2068 
Q 3634 1759 3634 1313 
Q 3634 634 3220 271 
Q 2806 -91 2034 -91 
Q 1263 -91 848 271 
Q 434 634 434 1313 
Q 434 1759 690 2068 
Q 947 2378 1403 2484 
z
M 1172 3481 
Q 1172 3119 1398 2916 
Q 1625 2713 2034 2713 
Q 2441 2713 2670 2916 
Q 2900 3119 2900 3481 
Q 2900 3844 2670 4047 
Q 2441 4250 2034 4250 
Q 1625 4250 1398 4047 
Q 1172 3844 1172 3481 
z
" transform="scale(0.015625)"/>
      <path id="DejaVuSans-30" d="M 2034 4250 
Q 1547 4250 1301 3770 
Q 1056 3291 1056 2328 
Q 1056 1369 1301 889 
Q 1547 409 2034 409 
Q 2525 409 2770 889 
Q 3016 1369 3016 2328 
Q 3016 3291 2770 3770 
Q 2525 4250 2034 4250 
z
M 2034 4750 
Q 2819 4750 3233 4129 
Q 3647 3509 3647 2328 
Q 3647 1150 3233 529 
Q 2819 -91 2034 -91 
Q 1250 -91 836 529 
Q 422 1150 422 2328 
Q 422 3509 836 4129 
Q 1250 4750 2034 4750 
z
" transform="scale(0.015625)"/>
     </defs>
     <use xlink:href="#DejaVuSans-33"/>
     <use xlink:href="#DejaVuSans-37" x="63.623047"/>
     <use xlink:href="#DejaVuSans-38" x="127.246094"/>
     <use xlink:href="#DejaVuSans-30" x="190.869141"/>
    </g>
   </g>
   <g id="text_5">
    <!-- 0.5 -->
    <g transform="translate(179.306563 82.870625) scale(0.22 -0.22)">
     <defs>
      <path id="DejaVuSans-2e" d="M 684 794 
L 1344 794 
L 1344 0 
L 684 0 
L 684 794 
z
" transform="scale(0.015625)"/>
     </defs>
     <use xlink:href="#DejaVuSans-30"/>
     <use xlink:href="#DejaVuSans-2e" x="63.623047"/>
     <use xlink:href="#DejaVuSans-35" x="95.410156"/>
    </g>
   </g>
   <g id="text_6">
    <!-- 0.5 -->
    <g transform="translate(179.306563 183.670625) scale(0.22 -0.22)">
     <use xlink:href="#DejaVuSans-30"/>
     <use xlink:href="#DejaVuSans-2e" x="63.623047"/>
     <use xlink:href="#DejaVuSans-35" x="95.410156"/>
    </g>
   </g>
   <g id="text_7">
    <!-- 0.5 -->
    <g transform="translate(462.506562 39.670625) scale(0.22 -0.22)">
     <use xlink:href="#DejaVuSans-30"/>
     <use xlink:href="#DejaVuSans-2e" x="63.623047"/>
     <use xlink:href="#DejaVuSans-35" x="95.410156"/>
    </g>
   </g>
   <g id="text_8">
    <!-- 0.5 -->
    <g transform="translate(443.306563 202.870625) scale(0.22 -0.22)">
     <use xlink:href="#DejaVuSans-30"/>
     <use xlink:href="#DejaVuSans-2e" x="63.623047"/>
     <use xlink:href="#DejaVuSans-35" x="95.410156"/>
    </g>
   </g>
   <g id="text_9">
    <!-- 0.5 -->
    <g transform="translate(481.706563 385.270625) scale(0.22 -0.22)">
     <use xlink:href="#DejaVuSans-30"/>
     <use xlink:href="#DejaVuSans-2e" x="63.623047"/>
     <use xlink:href="#DejaVuSans-35" x="95.410156"/>
    </g>
   </g>
   <g id="text_10">
    <!-- 0.5 -->
    <g transform="translate(462.506562 553.270625) scale(0.22 -0.22)">
     <use xlink:href="#DejaVuSans-30"/>
     <use xlink:href="#DejaVuSans-2e" x="63.623047"/>
     <use xlink:href="#DejaVuSans-35" x="95.410156"/>
    </g>
   </g>
   <g id="text_11">
    <!-- 1.0 -->
    <g transform="translate(179.306563 466.870625) scale(0.22 -0.22)">
     <use xlink:href="#DejaVuSans-31"/>
     <use xlink:href="#DejaVuSans-2e" x="63.623047"/>
     <use xlink:href="#DejaVuSans-30" x="95.410156"/>
    </g>
   </g>
  </g>
 </g>
 <defs>
  <clipPath id="p7a9beb1305">
   <rect x="0" y="0" width="576" height="576"/>
  </clipPath>
 </defs>
</svg>
