<?xml version="1.0" encoding="utf-8" standalone="no"?>
<!DOCTYPE svg PUBLIC "-//W3C//DTD SVG 1.1//EN"
  "http://www.w3.org/Graphics/SVG/1.1/DTD/svg11.dtd">
<svg xmlns:xlink="http://www.w3.org/1999/xlink" width="576pt" height="576pt" viewBox="0 0 576 576" xmlns="http://www.w3.org/2000/svg" version="1.1">
 <metadata>
  <rdf:RDF xmlns:dc="http://purl.org/dc/elements/1.1/" xmlns:cc="http://creativecommons.org/ns#" xmlns:rdf="http://www.w3.org/1999/02/22-rdf-syntax-ns#">
   <cc:Work>
    <dc:type rdf:resource="http://purl.org/dc/dcmitype/StillImage"/>
    <dc:date>2024-07-31T10:24:41.117489</dc:date>
    <dc:format>image/svg+xml</dc:format>
    <dc:creator>
     <cc:Agent>
      <dc:title>Matplotlib v3.9.1, https://matplotlib.org/</dc:title>
     </cc:Agent>
    </dc:creator>
   </cc:Work>
  </rdf:RDF>
 </metadata>
 <defs>
  <style type="text/css">*{stroke-linejoin: round; stroke-linecap: butt}</style>
 </defs>
 <g id="figure_1">
  <g id="patch_1">
   <path d="M 0 576 
L 576 576 
L 576 0 
L 0 0 
z
" style="fill: #ffffff"/>
  </g>
  <g id="axes_1">
   <g id="PatchCollection_1">
    <defs>
     <path id="m8e75b15537" d="M 96 -432 
C 108.729749 -432 120.939834 -437.057583 129.941125 -446.058875 
C 138.942417 -455.060166 144 -467.270251 144 -480 
C 144 -492.729749 138.942417 -504.939834 129.941125 -513.941125 
C 120.939834 -522.942417 108.729749 -528 96 -528 
C 83.270251 -528 71.060166 -522.942417 62.058875 -513.941125 
C 53.057583 -504.939834 48 -492.729749 48 -480 
C 48 -467.270251 53.057583 -455.060166 62.058875 -446.058875 
C 71.060166 -437.057583 83.270251 -432 96 -432 
z
" style="stroke: #e6e6e6"/>
    </defs>
    <g clip-path="url(#pc3505e8a80)">
     <use xlink:href="#m8e75b15537" x="0" y="576" style="fill: #2693de; stroke: #e6e6e6"/>
    </g>
   </g>
   <g id="PatchCollection_2">
    <defs>
     <path id="m7c470bf2f7" d="M 480 -432 
C 492.729749 -432 504.939834 -437.057583 513.941125 -446.058875 
C 522.942417 -455.060166 528 -467.270251 528 -480 
C 528 -492.729749 522.942417 -504.939834 513.941125 -513.941125 
C 504.939834 -522.942417 492.729749 -528 480 -528 
C 467.270251 -528 455.060166 -522.942417 446.058875 -513.941125 
C 437.057583 -504.939834 432 -492.729749 432 -480 
C 432 -467.270251 437.057583 -455.060166 446.058875 -446.058875 
C 455.060166 -437.057583 467.270251 -432 480 -432 
z
" style="stroke: #e6e6e6"/>
    </defs>
    <g clip-path="url(#pc3505e8a80)">
     <use xlink:href="#m7c470bf2f7" x="0" y="576" style="fill: #2693de; stroke: #e6e6e6"/>
    </g>
   </g>
   <g id="PatchCollection_3">
    <defs>
     <path id="m569d463dbf" d="M 480 -48 
C 492.729749 -48 504.939834 -53.057583 513.941125 -62.058875 
C 522.942417 -71.060166 528 -83.270251 528 -96 
C 528 -108.729749 522.942417 -120.939834 513.941125 -129.941125 
C 504.939834 -138.942417 492.729749 -144 480 -144 
C 467.270251 -144 455.060166 -138.942417 446.058875 -129.941125 
C 437.057583 -120.939834 432 -108.729749 432 -96 
C 432 -83.270251 437.057583 -71.060166 446.058875 -62.058875 
C 455.060166 -53.057583 467.270251 -48 480 -48 
z
" style="stroke: #e6e6e6"/>
    </defs>
    <g clip-path="url(#pc3505e8a80)">
     <use xlink:href="#m569d463dbf" x="0" y="576" style="fill: #2693de; stroke: #e6e6e6"/>
    </g>
   </g>
   <g id="PatchCollection_4">
    <defs>
     <path id="mdd90069d90" d="M 96 -48 
C 108.729749 -48 120.939834 -53.057583 129.941125 -62.058875 
C 138.942417 -71.060166 144 -83.270251 144 -96 
C 144 -108.729749 138.942417 -120.939834 129.941125 -129.941125 
C 120.939834 -138.942417 108.729749 -144 96 -144 
C 83.270251 -144 71.060166 -138.942417 62.058875 -129.941125 
C 53.057583 -120.939834 48 -108.729749 48 -96 
C 48 -83.270251 53.057583 -71.060166 62.058875 -62.058875 
C 71.060166 -53.057583 83.270251 -48 96 -48 
z
" style="stroke: #e6e6e6"/>
    </defs>
    <g clip-path="url(#pc3505e8a80)">
     <use xlink:href="#mdd90069d90" x="0" y="576" style="fill: #2693de; stroke: #e6e6e6"/>
    </g>
   </g>
   <g id="PatchCollection_5">
    <defs>
     <path id="mf49cf8cf3d" d="M 436.8 -499.2 
L 408 -489.6 
L 408 -497.76 
L 144 -497.76 
L 144 -500.64 
L 408 -500.64 
L 408 -508.8 
z
" style="stroke: #a3a3a3"/>
    </defs>
    <g clip-path="url(#pc3505e8a80)">
     <use xlink:href="#mf49cf8cf3d" x="0" y="576" style="fill: #a3a3a3; stroke: #a3a3a3"/>
    </g>
   </g>
   <g id="PatchCollection_6">
    <defs>
     <path id="maec4660a07" d="M 147.635325 -128.435325 
L 161.211775 -155.588225 
L 166.981766 -149.818234 
L 430.981766 -413.818234 
L 433.018234 -411.781766 
L 169.018234 -147.781766 
L 174.788225 -142.011775 
z
" style="stroke: #a3a3a3"/>
    </defs>
    <g clip-path="url(#pc3505e8a80)">
     <use xlink:href="#maec4660a07" x="0" y="576" style="fill: #a3a3a3; stroke: #a3a3a3"/>
    </g>
   </g>
   <g id="PatchCollection_7">
    <path d="M 438.430781 504 
C 434.749637 510.375928 432.584288 517.514126 432.102772 524.86065 
C 431.621255 532.207174 432.836357 539.566939 435.653782 546.368805 
C 438.471208 553.170671 442.81614 559.234018 448.351401 564.088311 
C 453.886661 568.942604 460.465263 572.45894 467.576686 574.36444 
C 474.688109 576.26994 482.143513 576.514004 489.364335 575.077693 
C 496.585158 573.641383 503.379654 570.562837 509.220549 566.08096 
C 515.061444 561.599084 519.793635 555.832892 523.049892 549.229857 
C 526.306148 542.626823 528 535.362287 528 528 
L 525.12 528 
C 525.12 534.92055 523.527779 541.749213 520.466898 547.956066 
C 517.406017 554.162918 512.957757 559.583139 507.467316 563.796103 
C 501.976874 568.009066 495.590049 570.9029 488.802475 572.253032 
C 482.014902 573.603164 475.006822 573.373743 468.322085 571.582573 
C 461.637347 569.791403 455.453462 566.486048 450.250317 561.923012 
C 445.047172 557.359977 440.962935 551.660431 438.314555 545.266676 
C 435.666176 538.872922 434.52398 531.954743 434.976605 525.049011 
C 435.429231 518.143279 437.464659 511.433372 440.924934 505.44 
z
" clip-path="url(#pc3505e8a80)" style="fill: #a3a3a3; stroke: #a3a3a3"/>
    <path d="M 507.36 528 
L 545.76 528 
L 526.56 513.6 
z
" clip-path="url(#pc3505e8a80)" style="fill: #a3a3a3; stroke: #a3a3a3"/>
   </g>
   <g id="PatchCollection_8">
    <defs>
     <path id="m64ce3edd69" d="M 139.2 -76.8 
L 168 -86.4 
L 168 -78.24 
L 432 -78.24 
L 432 -75.36 
L 168 -75.36 
L 168 -67.2 
z
" style="stroke: #a3a3a3"/>
    </defs>
    <g clip-path="url(#pc3505e8a80)">
     <use xlink:href="#m64ce3edd69" x="0" y="576" style="fill: #a3a3a3; stroke: #a3a3a3"/>
    </g>
   </g>
   <g id="PatchCollection_9">
    <path d="M 54.430781 504 
C 50.749637 510.375928 48.584288 517.514126 48.102772 524.86065 
C 47.621255 532.207174 48.836357 539.566939 51.653782 546.368805 
C 54.471208 553.170671 58.81614 559.234018 64.351401 564.088311 
C 69.886661 568.942604 76.465263 572.45894 83.576686 574.36444 
C 90.688109 576.26994 98.143513 576.514004 105.364335 575.077693 
C 112.585158 573.641383 119.379654 570.562837 125.220549 566.08096 
C 131.061444 561.599084 135.793635 555.832892 139.049892 549.229857 
C 142.306148 542.626823 144 535.362287 144 528 
L 141.12 528 
C 141.12 534.92055 139.527779 541.749213 136.466898 547.956066 
C 133.406017 554.162918 128.957757 559.583139 123.467316 563.796103 
C 117.976874 568.009066 111.590049 570.9029 104.802475 572.253032 
C 98.014902 573.603164 91.006822 573.373743 84.322085 571.582573 
C 77.637347 569.791403 71.453462 566.486048 66.250317 561.923012 
C 61.047172 557.359977 56.962935 551.660431 54.314555 545.266676 
C 51.666176 538.872922 50.52398 531.954743 50.976605 525.049011 
C 51.429231 518.143279 53.464659 511.433372 56.924934 505.44 
z
" clip-path="url(#pc3505e8a80)" style="fill: #a3a3a3; stroke: #a3a3a3"/>
    <path d="M 123.36 528 
L 161.76 528 
L 142.56 513.6 
z
" clip-path="url(#pc3505e8a80)" style="fill: #a3a3a3; stroke: #a3a3a3"/>
   </g>
   <g id="text_1">
    <!-- 571 -->
    <g style="fill: #ffffff" transform="translate(75.00375 102.070625) scale(0.22 -0.22)">
     <defs>
      <path id="DejaVuSans-35" d="M 691 4666 
L 3169 4666 
L 3169 4134 
L 1269 4134 
L 1269 2991 
Q 1406 3038 1543 3061 
Q 1681 3084 1819 3084 
Q 2600 3084 3056 2656 
Q 3513 2228 3513 1497 
Q 3513 744 3044 326 
Q 2575 -91 1722 -91 
Q 1428 -91 1123 -41 
Q 819 9 494 109 
L 494 744 
Q 775 591 1075 516 
Q 1375 441 1709 441 
Q 2250 441 2565 725 
Q 2881 1009 2881 1497 
Q 2881 1984 2565 2268 
Q 2250 2553 1709 2553 
Q 1456 2553 1204 2497 
Q 953 2441 691 2322 
L 691 4666 
z
" transform="scale(0.015625)"/>
      <path id="DejaVuSans-37" d="M 525 4666 
L 3525 4666 
L 3525 4397 
L 1831 0 
L 1172 0 
L 2766 4134 
L 525 4134 
L 525 4666 
z
" transform="scale(0.015625)"/>
      <path id="DejaVuSans-31" d="M 794 531 
L 1825 531 
L 1825 4091 
L 703 3866 
L 703 4441 
L 1819 4666 
L 2450 4666 
L 2450 531 
L 3481 531 
L 3481 0 
L 794 0 
L 794 531 
z
" transform="scale(0.015625)"/>
     </defs>
     <use xlink:href="#DejaVuSans-35"/>
     <use xlink:href="#DejaVuSans-37" x="63.623047"/>
     <use xlink:href="#DejaVuSans-31" x="127.246094"/>
    </g>
   </g>
   <g id="text_2">
    <!-- 664 -->
    <g style="fill: #ffffff" transform="translate(459.00375 102.070625) scale(0.22 -0.22)">
     <defs>
      <path id="DejaVuSans-36" d="M 2113 2584 
Q 1688 2584 1439 2293 
Q 1191 2003 1191 1497 
Q 1191 994 1439 701 
Q 1688 409 2113 409 
Q 2538 409 2786 701 
Q 3034 994 3034 1497 
Q 3034 2003 2786 2293 
Q 2538 2584 2113 2584 
z
M 3366 4563 
L 3366 3988 
Q 3128 4100 2886 4159 
Q 2644 4219 2406 4219 
Q 1781 4219 1451 3797 
Q 1122 3375 1075 2522 
Q 1259 2794 1537 2939 
Q 1816 3084 2150 3084 
Q 2853 3084 3261 2657 
Q 3669 2231 3669 1497 
Q 3669 778 3244 343 
Q 2819 -91 2113 -91 
Q 1303 -91 875 529 
Q 447 1150 447 2328 
Q 447 3434 972 4092 
Q 1497 4750 2381 4750 
Q 2619 4750 2861 4703 
Q 3103 4656 3366 4563 
z
" transform="scale(0.015625)"/>
      <path id="DejaVuSans-34" d="M 2419 4116 
L 825 1625 
L 2419 1625 
L 2419 4116 
z
M 2253 4666 
L 3047 4666 
L 3047 1625 
L 3713 1625 
L 3713 1100 
L 3047 1100 
L 3047 0 
L 2419 0 
L 2419 1100 
L 313 1100 
L 313 1709 
L 2253 4666 
z
" transform="scale(0.015625)"/>
     </defs>
     <use xlink:href="#DejaVuSans-36"/>
     <use xlink:href="#DejaVuSans-36" x="63.623047"/>
     <use xlink:href="#DejaVuSans-34" x="127.246094"/>
    </g>
   </g>
   <g id="text_3">
    <!-- 962 -->
    <g style="fill: #ffffff" transform="translate(459.00375 486.070625) scale(0.22 -0.22)">
     <defs>
      <path id="DejaVuSans-39" d="M 703 97 
L 703 672 
Q 941 559 1184 500 
Q 1428 441 1663 441 
Q 2288 441 2617 861 
Q 2947 1281 2994 2138 
Q 2813 1869 2534 1725 
Q 2256 1581 1919 1581 
Q 1219 1581 811 2004 
Q 403 2428 403 3163 
Q 403 3881 828 4315 
Q 1253 4750 1959 4750 
Q 2769 4750 3195 4129 
Q 3622 3509 3622 2328 
Q 3622 1225 3098 567 
Q 2575 -91 1691 -91 
Q 1453 -91 1209 -44 
Q 966 3 703 97 
z
M 1959 2075 
Q 2384 2075 2632 2365 
Q 2881 2656 2881 3163 
Q 2881 3666 2632 3958 
Q 2384 4250 1959 4250 
Q 1534 4250 1286 3958 
Q 1038 3666 1038 3163 
Q 1038 2656 1286 2365 
Q 1534 2075 1959 2075 
z
" transform="scale(0.015625)"/>
      <path id="DejaVuSans-32" d="M 1228 531 
L 3431 531 
L 3431 0 
L 469 0 
L 469 531 
Q 828 903 1448 1529 
Q 2069 2156 2228 2338 
Q 2531 2678 2651 2914 
Q 2772 3150 2772 3378 
Q 2772 3750 2511 3984 
Q 2250 4219 1831 4219 
Q 1534 4219 1204 4116 
Q 875 4013 500 3803 
L 500 4441 
Q 881 4594 1212 4672 
Q 1544 4750 1819 4750 
Q 2544 4750 2975 4387 
Q 3406 4025 3406 3419 
Q 3406 3131 3298 2873 
Q 3191 2616 2906 2266 
Q 2828 2175 2409 1742 
Q 1991 1309 1228 531 
z
" transform="scale(0.015625)"/>
     </defs>
     <use xlink:href="#DejaVuSans-39"/>
     <use xlink:href="#DejaVuSans-36" x="63.623047"/>
     <use xlink:href="#DejaVuSans-32" x="127.246094"/>
    </g>
   </g>
   <g id="text_4">
    <!-- 802 -->
    <g transform="translate(73.039219 486.070625) scale(0.22 -0.22)">
     <defs>
      <path id="DejaVuSans-Bold-38" d="M 2228 2088 
Q 1891 2088 1709 1903 
Q 1528 1719 1528 1375 
Q 1528 1031 1709 848 
Q 1891 666 2228 666 
Q 2563 666 2741 848 
Q 2919 1031 2919 1375 
Q 2919 1722 2741 1905 
Q 2563 2088 2228 2088 
z
M 1350 2484 
Q 925 2613 709 2878 
Q 494 3144 494 3541 
Q 494 4131 934 4440 
Q 1375 4750 2228 4750 
Q 3075 4750 3515 4442 
Q 3956 4134 3956 3541 
Q 3956 3144 3739 2878 
Q 3522 2613 3097 2484 
Q 3572 2353 3814 2058 
Q 4056 1763 4056 1313 
Q 4056 619 3595 264 
Q 3134 -91 2228 -91 
Q 1319 -91 855 264 
Q 391 619 391 1313 
Q 391 1763 633 2058 
Q 875 2353 1350 2484 
z
M 1631 3419 
Q 1631 3141 1786 2991 
Q 1941 2841 2228 2841 
Q 2509 2841 2662 2991 
Q 2816 3141 2816 3419 
Q 2816 3697 2662 3845 
Q 2509 3994 2228 3994 
Q 1941 3994 1786 3844 
Q 1631 3694 1631 3419 
z
" transform="scale(0.015625)"/>
      <path id="DejaVuSans-Bold-30" d="M 2944 2338 
Q 2944 3213 2780 3570 
Q 2616 3928 2228 3928 
Q 1841 3928 1675 3570 
Q 1509 3213 1509 2338 
Q 1509 1453 1675 1090 
Q 1841 728 2228 728 
Q 2613 728 2778 1090 
Q 2944 1453 2944 2338 
z
M 4147 2328 
Q 4147 1169 3647 539 
Q 3147 -91 2228 -91 
Q 1306 -91 806 539 
Q 306 1169 306 2328 
Q 306 3491 806 4120 
Q 1306 4750 2228 4750 
Q 3147 4750 3647 4120 
Q 4147 3491 4147 2328 
z
" transform="scale(0.015625)"/>
      <path id="DejaVuSans-Bold-32" d="M 1844 884 
L 3897 884 
L 3897 0 
L 506 0 
L 506 884 
L 2209 2388 
Q 2438 2594 2547 2791 
Q 2656 2988 2656 3200 
Q 2656 3528 2436 3728 
Q 2216 3928 1850 3928 
Q 1569 3928 1234 3808 
Q 900 3688 519 3450 
L 519 4475 
Q 925 4609 1322 4679 
Q 1719 4750 2100 4750 
Q 2938 4750 3402 4381 
Q 3866 4013 3866 3353 
Q 3866 2972 3669 2642 
Q 3472 2313 2841 1759 
L 1844 884 
z
" transform="scale(0.015625)"/>
     </defs>
     <use xlink:href="#DejaVuSans-Bold-38"/>
     <use xlink:href="#DejaVuSans-Bold-30" x="69.580078"/>
     <use xlink:href="#DejaVuSans-Bold-32" x="139.160156"/>
    </g>
   </g>
   <g id="text_5">
    <!-- 1.0 -->
    <g transform="translate(179.306563 82.870625) scale(0.22 -0.22)">
     <defs>
      <path id="DejaVuSans-2e" d="M 684 794 
L 1344 794 
L 1344 0 
L 684 0 
L 684 794 
z
" transform="scale(0.015625)"/>
      <path id="DejaVuSans-30" d="M 2034 4250 
Q 1547 4250 1301 3770 
Q 1056 3291 1056 2328 
Q 1056 1369 1301 889 
Q 1547 409 2034 409 
Q 2525 409 2770 889 
Q 3016 1369 3016 2328 
Q 3016 3291 2770 3770 
Q 2525 4250 2034 4250 
z
M 2034 4750 
Q 2819 4750 3233 4129 
Q 3647 3509 3647 2328 
Q 3647 1150 3233 529 
Q 2819 -91 2034 -91 
Q 1250 -91 836 529 
Q 422 1150 422 2328 
Q 422 3509 836 4129 
Q 1250 4750 2034 4750 
z
" transform="scale(0.015625)"/>
     </defs>
     <use xlink:href="#DejaVuSans-31"/>
     <use xlink:href="#DejaVuSans-2e" x="63.623047"/>
     <use xlink:href="#DejaVuSans-30" x="95.410156"/>
    </g>
   </g>
   <g id="text_6">
    <!-- 1.0 -->
    <g transform="translate(361.706563 222.070625) scale(0.22 -0.22)">
     <use xlink:href="#DejaVuSans-31"/>
     <use xlink:href="#DejaVuSans-2e" x="63.623047"/>
     <use xlink:href="#DejaVuSans-30" x="95.410156"/>
    </g>
   </g>
   <g id="text_7">
    <!-- 0.5 -->
    <g transform="translate(462.506562 553.270625) scale(0.22 -0.22)">
     <use xlink:href="#DejaVuSans-30"/>
     <use xlink:href="#DejaVuSans-2e" x="63.623047"/>
     <use xlink:href="#DejaVuSans-35" x="95.410156"/>
    </g>
   </g>
   <g id="text_8">
    <!-- 0.5 -->
    <g transform="translate(361.706563 505.270625) scale(0.22 -0.22)">
     <use xlink:href="#DejaVuSans-30"/>
     <use xlink:href="#DejaVuSans-2e" x="63.623047"/>
     <use xlink:href="#DejaVuSans-35" x="95.410156"/>
    </g>
   </g>
   <g id="text_9">
    <!-- 1.0 -->
    <g transform="translate(78.506563 553.270625) scale(0.22 -0.22)">
     <use xlink:href="#DejaVuSans-31"/>
     <use xlink:href="#DejaVuSans-2e" x="63.623047"/>
     <use xlink:href="#DejaVuSans-30" x="95.410156"/>
    </g>
   </g>
  </g>
 </g>
 <defs>
  <clipPath id="pc3505e8a80">
   <rect x="0" y="0" width="576" height="576"/>
  </clipPath>
 </defs>
</svg>
