<?xml version="1.0" encoding="utf-8" standalone="no"?>
<!DOCTYPE svg PUBLIC "-//W3C//DTD SVG 1.1//EN"
  "http://www.w3.org/Graphics/SVG/1.1/DTD/svg11.dtd">
<svg xmlns:xlink="http://www.w3.org/1999/xlink" width="576pt" height="576pt" viewBox="0 0 576 576" xmlns="http://www.w3.org/2000/svg" version="1.1">
 <metadata>
  <rdf:RDF xmlns:dc="http://purl.org/dc/elements/1.1/" xmlns:cc="http://creativecommons.org/ns#" xmlns:rdf="http://www.w3.org/1999/02/22-rdf-syntax-ns#">
   <cc:Work>
    <dc:type rdf:resource="http://purl.org/dc/dcmitype/StillImage"/>
    <dc:date>2024-07-31T10:25:01.086430</dc:date>
    <dc:format>image/svg+xml</dc:format>
    <dc:creator>
     <cc:Agent>
      <dc:title>Matplotlib v3.9.1, https://matplotlib.org/</dc:title>
     </cc:Agent>
    </dc:creator>
   </cc:Work>
  </rdf:RDF>
 </metadata>
 <defs>
  <style type="text/css">*{stroke-linejoin: round; stroke-linecap: butt}</style>
 </defs>
 <g id="figure_1">
  <g id="patch_1">
   <path d="M 0 576 
L 576 576 
L 576 0 
L 0 0 
z
" style="fill: #ffffff"/>
  </g>
  <g id="axes_1">
   <g id="PatchCollection_1">
    <defs>
     <path id="m69cb0573fb" d="M 96 -432 
C 108.729749 -432 120.939834 -437.057583 129.941125 -446.058875 
C 138.942417 -455.060166 144 -467.270251 144 -480 
C 144 -492.729749 138.942417 -504.939834 129.941125 -513.941125 
C 120.939834 -522.942417 108.729749 -528 96 -528 
C 83.270251 -528 71.060166 -522.942417 62.058875 -513.941125 
C 53.057583 -504.939834 48 -492.729749 48 -480 
C 48 -467.270251 53.057583 -455.060166 62.058875 -446.058875 
C 71.060166 -437.057583 83.270251 -432 96 -432 
z
" style="stroke: #e6e6e6"/>
    </defs>
    <g clip-path="url(#p9aad79bff4)">
     <use xlink:href="#m69cb0573fb" x="0" y="576" style="fill: #2693de; stroke: #e6e6e6"/>
    </g>
   </g>
   <g id="PatchCollection_2">
    <defs>
     <path id="m72403326ef" d="M 480 -432 
C 492.729749 -432 504.939834 -437.057583 513.941125 -446.058875 
C 522.942417 -455.060166 528 -467.270251 528 -480 
C 528 -492.729749 522.942417 -504.939834 513.941125 -513.941125 
C 504.939834 -522.942417 492.729749 -528 480 -528 
C 467.270251 -528 455.060166 -522.942417 446.058875 -513.941125 
C 437.057583 -504.939834 432 -492.729749 432 -480 
C 432 -467.270251 437.057583 -455.060166 446.058875 -446.058875 
C 455.060166 -437.057583 467.270251 -432 480 -432 
z
" style="stroke: #e6e6e6"/>
    </defs>
    <g clip-path="url(#p9aad79bff4)">
     <use xlink:href="#m72403326ef" x="0" y="576" style="fill: #2693de; stroke: #e6e6e6"/>
    </g>
   </g>
   <g id="PatchCollection_3">
    <defs>
     <path id="m3d7956cccc" d="M 480 -48 
C 492.729749 -48 504.939834 -53.057583 513.941125 -62.058875 
C 522.942417 -71.060166 528 -83.270251 528 -96 
C 528 -108.729749 522.942417 -120.939834 513.941125 -129.941125 
C 504.939834 -138.942417 492.729749 -144 480 -144 
C 467.270251 -144 455.060166 -138.942417 446.058875 -129.941125 
C 437.057583 -120.939834 432 -108.729749 432 -96 
C 432 -83.270251 437.057583 -71.060166 446.058875 -62.058875 
C 455.060166 -53.057583 467.270251 -48 480 -48 
z
" style="stroke: #e6e6e6"/>
    </defs>
    <g clip-path="url(#p9aad79bff4)">
     <use xlink:href="#m3d7956cccc" x="0" y="576" style="fill: #2693de; stroke: #e6e6e6"/>
    </g>
   </g>
   <g id="PatchCollection_4">
    <defs>
     <path id="madcc31f967" d="M 96 -48 
C 108.729749 -48 120.939834 -53.057583 129.941125 -62.058875 
C 138.942417 -71.060166 144 -83.270251 144 -96 
C 144 -108.729749 138.942417 -120.939834 129.941125 -129.941125 
C 120.939834 -138.942417 108.729749 -144 96 -144 
C 83.270251 -144 71.060166 -138.942417 62.058875 -129.941125 
C 53.057583 -120.939834 48 -108.729749 48 -96 
C 48 -83.270251 53.057583 -71.060166 62.058875 -62.058875 
C 71.060166 -53.057583 83.270251 -48 96 -48 
z
" style="stroke: #e6e6e6"/>
    </defs>
    <g clip-path="url(#p9aad79bff4)">
     <use xlink:href="#madcc31f967" x="0" y="576" style="fill: #2693de; stroke: #e6e6e6"/>
    </g>
   </g>
   <g id="PatchCollection_5">
    <defs>
     <path id="m5c9862f38b" d="M 436.8 -499.2 
L 408 -489.6 
L 408 -497.76 
L 144 -497.76 
L 144 -500.64 
L 408 -500.64 
L 408 -508.8 
z
" style="stroke: #a3a3a3"/>
    </defs>
    <g clip-path="url(#p9aad79bff4)">
     <use xlink:href="#m5c9862f38b" x="0" y="576" style="fill: #a3a3a3; stroke: #a3a3a3"/>
    </g>
   </g>
   <g id="PatchCollection_6">
    <path d="M 521.569219 72 
C 525.250363 65.624072 527.415712 58.485874 527.897228 51.13935 
C 528.378745 43.792826 527.163643 36.433061 524.346218 29.631195 
C 521.528792 22.829329 517.18386 16.765982 511.648599 11.911689 
C 506.113339 7.057396 499.534737 3.54106 492.423314 1.63556 
C 485.311891 -0.26994 477.856487 -0.514004 470.635665 0.922307 
C 463.414842 2.358617 456.620346 5.437163 450.779451 9.91904 
C 444.938556 14.400916 440.206365 20.167108 436.950108 26.770143 
C 433.693852 33.373177 432 40.637713 432 48 
L 434.88 48 
C 434.88 41.07945 436.472221 34.250787 439.533102 28.043934 
C 442.593983 21.837082 447.042243 16.416861 452.532684 12.203897 
C 458.023126 7.990934 464.409951 5.0971 471.197525 3.746968 
C 477.985098 2.396836 484.993178 2.626257 491.677915 4.417427 
C 498.362653 6.208597 504.546538 9.513952 509.749683 14.076988 
C 514.952828 18.640023 519.037065 24.339569 521.685445 30.733324 
C 524.333824 37.127078 525.47602 44.045257 525.023395 50.950989 
C 524.570769 57.856721 522.535341 64.566628 519.075066 70.56 
z
" clip-path="url(#p9aad79bff4)" style="fill: #a3a3a3; stroke: #a3a3a3"/>
    <path d="M 414.24 48 
L 452.64 48 
L 433.44 62.4 
z
" clip-path="url(#p9aad79bff4)" style="fill: #a3a3a3; stroke: #a3a3a3"/>
   </g>
   <g id="PatchCollection_7">
    <defs>
     <path id="mcff02487e0" d="M 499.2 -436.8 
L 508.8 -408 
L 500.64 -408 
L 500.64 -144 
L 497.76 -144 
L 497.76 -408 
L 489.6 -408 
z
" style="stroke: #a3a3a3"/>
    </defs>
    <g clip-path="url(#p9aad79bff4)">
     <use xlink:href="#mcff02487e0" x="0" y="576" style="fill: #a3a3a3; stroke: #a3a3a3"/>
    </g>
   </g>
   <g id="PatchCollection_8">
    <path d="M 438.430781 504 
C 434.749637 510.375928 432.584288 517.514126 432.102772 524.86065 
C 431.621255 532.207174 432.836357 539.566939 435.653782 546.368805 
C 438.471208 553.170671 442.81614 559.234018 448.351401 564.088311 
C 453.886661 568.942604 460.465263 572.45894 467.576686 574.36444 
C 474.688109 576.26994 482.143513 576.514004 489.364335 575.077693 
C 496.585158 573.641383 503.379654 570.562837 509.220549 566.08096 
C 515.061444 561.599084 519.793635 555.832892 523.049892 549.229857 
C 526.306148 542.626823 528 535.362287 528 528 
L 525.12 528 
C 525.12 534.92055 523.527779 541.749213 520.466898 547.956066 
C 517.406017 554.162918 512.957757 559.583139 507.467316 563.796103 
C 501.976874 568.009066 495.590049 570.9029 488.802475 572.253032 
C 482.014902 573.603164 475.006822 573.373743 468.322085 571.582573 
C 461.637347 569.791403 455.453462 566.486048 450.250317 561.923012 
C 445.047172 557.359977 440.962935 551.660431 438.314555 545.266676 
C 435.666176 538.872922 434.52398 531.954743 434.976605 525.049011 
C 435.429231 518.143279 437.464659 511.433372 440.924934 505.44 
z
" clip-path="url(#p9aad79bff4)" style="fill: #a3a3a3; stroke: #a3a3a3"/>
    <path d="M 507.36 528 
L 545.76 528 
L 526.56 513.6 
z
" clip-path="url(#p9aad79bff4)" style="fill: #a3a3a3; stroke: #a3a3a3"/>
   </g>
   <g id="PatchCollection_9">
    <defs>
     <path id="m923c59b7e6" d="M 436.8 -115.2 
L 408 -105.6 
L 408 -113.76 
L 144 -113.76 
L 144 -116.64 
L 408 -116.64 
L 408 -124.8 
z
" style="stroke: #a3a3a3"/>
    </defs>
    <g clip-path="url(#p9aad79bff4)">
     <use xlink:href="#m923c59b7e6" x="0" y="576" style="fill: #a3a3a3; stroke: #a3a3a3"/>
    </g>
   </g>
   <g id="text_1">
    <!-- 1262 -->
    <g style="fill: #ffffff" transform="translate(68.005 102.070625) scale(0.22 -0.22)">
     <defs>
      <path id="DejaVuSans-31" d="M 794 531 
L 1825 531 
L 1825 4091 
L 703 3866 
L 703 4441 
L 1819 4666 
L 2450 4666 
L 2450 531 
L 3481 531 
L 3481 0 
L 794 0 
L 794 531 
z
" transform="scale(0.015625)"/>
      <path id="DejaVuSans-32" d="M 1228 531 
L 3431 531 
L 3431 0 
L 469 0 
L 469 531 
Q 828 903 1448 1529 
Q 2069 2156 2228 2338 
Q 2531 2678 2651 2914 
Q 2772 3150 2772 3378 
Q 2772 3750 2511 3984 
Q 2250 4219 1831 4219 
Q 1534 4219 1204 4116 
Q 875 4013 500 3803 
L 500 4441 
Q 881 4594 1212 4672 
Q 1544 4750 1819 4750 
Q 2544 4750 2975 4387 
Q 3406 4025 3406 3419 
Q 3406 3131 3298 2873 
Q 3191 2616 2906 2266 
Q 2828 2175 2409 1742 
Q 1991 1309 1228 531 
z
" transform="scale(0.015625)"/>
      <path id="DejaVuSans-36" d="M 2113 2584 
Q 1688 2584 1439 2293 
Q 1191 2003 1191 1497 
Q 1191 994 1439 701 
Q 1688 409 2113 409 
Q 2538 409 2786 701 
Q 3034 994 3034 1497 
Q 3034 2003 2786 2293 
Q 2538 2584 2113 2584 
z
M 3366 4563 
L 3366 3988 
Q 3128 4100 2886 4159 
Q 2644 4219 2406 4219 
Q 1781 4219 1451 3797 
Q 1122 3375 1075 2522 
Q 1259 2794 1537 2939 
Q 1816 3084 2150 3084 
Q 2853 3084 3261 2657 
Q 3669 2231 3669 1497 
Q 3669 778 3244 343 
Q 2819 -91 2113 -91 
Q 1303 -91 875 529 
Q 447 1150 447 2328 
Q 447 3434 972 4092 
Q 1497 4750 2381 4750 
Q 2619 4750 2861 4703 
Q 3103 4656 3366 4563 
z
" transform="scale(0.015625)"/>
     </defs>
     <use xlink:href="#DejaVuSans-31"/>
     <use xlink:href="#DejaVuSans-32" x="63.623047"/>
     <use xlink:href="#DejaVuSans-36" x="127.246094"/>
     <use xlink:href="#DejaVuSans-32" x="190.869141"/>
    </g>
   </g>
   <g id="text_2">
    <!-- 1595 -->
    <g transform="translate(449.385625 102.070625) scale(0.22 -0.22)">
     <defs>
      <path id="DejaVuSans-Bold-31" d="M 750 831 
L 1813 831 
L 1813 3847 
L 722 3622 
L 722 4441 
L 1806 4666 
L 2950 4666 
L 2950 831 
L 4013 831 
L 4013 0 
L 750 0 
L 750 831 
z
" transform="scale(0.015625)"/>
      <path id="DejaVuSans-Bold-35" d="M 678 4666 
L 3669 4666 
L 3669 3781 
L 1638 3781 
L 1638 3059 
Q 1775 3097 1914 3117 
Q 2053 3138 2203 3138 
Q 3056 3138 3531 2711 
Q 4006 2284 4006 1522 
Q 4006 766 3489 337 
Q 2972 -91 2053 -91 
Q 1656 -91 1267 -14 
Q 878 63 494 219 
L 494 1166 
Q 875 947 1217 837 
Q 1559 728 1863 728 
Q 2300 728 2551 942 
Q 2803 1156 2803 1522 
Q 2803 1891 2551 2103 
Q 2300 2316 1863 2316 
Q 1603 2316 1309 2248 
Q 1016 2181 678 2041 
L 678 4666 
z
" transform="scale(0.015625)"/>
      <path id="DejaVuSans-Bold-39" d="M 641 103 
L 641 966 
Q 928 831 1190 764 
Q 1453 697 1709 697 
Q 2247 697 2547 995 
Q 2847 1294 2900 1881 
Q 2688 1725 2447 1647 
Q 2206 1569 1925 1569 
Q 1209 1569 770 1986 
Q 331 2403 331 3084 
Q 331 3838 820 4291 
Q 1309 4744 2131 4744 
Q 3044 4744 3544 4128 
Q 4044 3513 4044 2388 
Q 4044 1231 3459 570 
Q 2875 -91 1856 -91 
Q 1528 -91 1228 -42 
Q 928 6 641 103 
z
M 2125 2350 
Q 2441 2350 2600 2554 
Q 2759 2759 2759 3169 
Q 2759 3575 2600 3781 
Q 2441 3988 2125 3988 
Q 1809 3988 1650 3781 
Q 1491 3575 1491 3169 
Q 1491 2759 1650 2554 
Q 1809 2350 2125 2350 
z
" transform="scale(0.015625)"/>
     </defs>
     <use xlink:href="#DejaVuSans-Bold-31"/>
     <use xlink:href="#DejaVuSans-Bold-35" x="69.580078"/>
     <use xlink:href="#DejaVuSans-Bold-39" x="139.160156"/>
     <use xlink:href="#DejaVuSans-Bold-35" x="208.740234"/>
    </g>
   </g>
   <g id="text_3">
    <!-- 2165 -->
    <g style="fill: #ffffff" transform="translate(452.005 486.070625) scale(0.22 -0.22)">
     <defs>
      <path id="DejaVuSans-35" d="M 691 4666 
L 3169 4666 
L 3169 4134 
L 1269 4134 
L 1269 2991 
Q 1406 3038 1543 3061 
Q 1681 3084 1819 3084 
Q 2600 3084 3056 2656 
Q 3513 2228 3513 1497 
Q 3513 744 3044 326 
Q 2575 -91 1722 -91 
Q 1428 -91 1123 -41 
Q 819 9 494 109 
L 494 744 
Q 775 591 1075 516 
Q 1375 441 1709 441 
Q 2250 441 2565 725 
Q 2881 1009 2881 1497 
Q 2881 1984 2565 2268 
Q 2250 2553 1709 2553 
Q 1456 2553 1204 2497 
Q 953 2441 691 2322 
L 691 4666 
z
" transform="scale(0.015625)"/>
     </defs>
     <use xlink:href="#DejaVuSans-32"/>
     <use xlink:href="#DejaVuSans-31" x="63.623047"/>
     <use xlink:href="#DejaVuSans-36" x="127.246094"/>
     <use xlink:href="#DejaVuSans-35" x="190.869141"/>
    </g>
   </g>
   <g id="text_4">
    <!-- 3780 -->
    <g style="fill: #ffffff" transform="translate(68.005 486.070625) scale(0.22 -0.22)">
     <defs>
      <path id="DejaVuSans-33" d="M 2597 2516 
Q 3050 2419 3304 2112 
Q 3559 1806 3559 1356 
Q 3559 666 3084 287 
Q 2609 -91 1734 -91 
Q 1441 -91 1130 -33 
Q 819 25 488 141 
L 488 750 
Q 750 597 1062 519 
Q 1375 441 1716 441 
Q 2309 441 2620 675 
Q 2931 909 2931 1356 
Q 2931 1769 2642 2001 
Q 2353 2234 1838 2234 
L 1294 2234 
L 1294 2753 
L 1863 2753 
Q 2328 2753 2575 2939 
Q 2822 3125 2822 3475 
Q 2822 3834 2567 4026 
Q 2313 4219 1838 4219 
Q 1578 4219 1281 4162 
Q 984 4106 628 3988 
L 628 4550 
Q 988 4650 1302 4700 
Q 1616 4750 1894 4750 
Q 2613 4750 3031 4423 
Q 3450 4097 3450 3541 
Q 3450 3153 3228 2886 
Q 3006 2619 2597 2516 
z
" transform="scale(0.015625)"/>
      <path id="DejaVuSans-37" d="M 525 4666 
L 3525 4666 
L 3525 4397 
L 1831 0 
L 1172 0 
L 2766 4134 
L 525 4134 
L 525 4666 
z
" transform="scale(0.015625)"/>
      <path id="DejaVuSans-38" d="M 2034 2216 
Q 1584 2216 1326 1975 
Q 1069 1734 1069 1313 
Q 1069 891 1326 650 
Q 1584 409 2034 409 
Q 2484 409 2743 651 
Q 3003 894 3003 1313 
Q 3003 1734 2745 1975 
Q 2488 2216 2034 2216 
z
M 1403 2484 
Q 997 2584 770 2862 
Q 544 3141 544 3541 
Q 544 4100 942 4425 
Q 1341 4750 2034 4750 
Q 2731 4750 3128 4425 
Q 3525 4100 3525 3541 
Q 3525 3141 3298 2862 
Q 3072 2584 2669 2484 
Q 3125 2378 3379 2068 
Q 3634 1759 3634 1313 
Q 3634 634 3220 271 
Q 2806 -91 2034 -91 
Q 1263 -91 848 271 
Q 434 634 434 1313 
Q 434 1759 690 2068 
Q 947 2378 1403 2484 
z
M 1172 3481 
Q 1172 3119 1398 2916 
Q 1625 2713 2034 2713 
Q 2441 2713 2670 2916 
Q 2900 3119 2900 3481 
Q 2900 3844 2670 4047 
Q 2441 4250 2034 4250 
Q 1625 4250 1398 4047 
Q 1172 3844 1172 3481 
z
" transform="scale(0.015625)"/>
      <path id="DejaVuSans-30" d="M 2034 4250 
Q 1547 4250 1301 3770 
Q 1056 3291 1056 2328 
Q 1056 1369 1301 889 
Q 1547 409 2034 409 
Q 2525 409 2770 889 
Q 3016 1369 3016 2328 
Q 3016 3291 2770 3770 
Q 2525 4250 2034 4250 
z
M 2034 4750 
Q 2819 4750 3233 4129 
Q 3647 3509 3647 2328 
Q 3647 1150 3233 529 
Q 2819 -91 2034 -91 
Q 1250 -91 836 529 
Q 422 1150 422 2328 
Q 422 3509 836 4129 
Q 1250 4750 2034 4750 
z
" transform="scale(0.015625)"/>
     </defs>
     <use xlink:href="#DejaVuSans-33"/>
     <use xlink:href="#DejaVuSans-37" x="63.623047"/>
     <use xlink:href="#DejaVuSans-38" x="127.246094"/>
     <use xlink:href="#DejaVuSans-30" x="190.869141"/>
    </g>
   </g>
   <g id="text_5">
    <!-- 1.0 -->
    <g transform="translate(179.306563 82.870625) scale(0.22 -0.22)">
     <defs>
      <path id="DejaVuSans-2e" d="M 684 794 
L 1344 794 
L 1344 0 
L 684 0 
L 684 794 
z
" transform="scale(0.015625)"/>
     </defs>
     <use xlink:href="#DejaVuSans-31"/>
     <use xlink:href="#DejaVuSans-2e" x="63.623047"/>
     <use xlink:href="#DejaVuSans-30" x="95.410156"/>
    </g>
   </g>
   <g id="text_6">
    <!-- 1.0 -->
    <g transform="translate(462.506562 39.670625) scale(0.22 -0.22)">
     <use xlink:href="#DejaVuSans-31"/>
     <use xlink:href="#DejaVuSans-2e" x="63.623047"/>
     <use xlink:href="#DejaVuSans-30" x="95.410156"/>
    </g>
   </g>
   <g id="text_7">
    <!-- 0.5 -->
    <g transform="translate(481.706563 385.270625) scale(0.22 -0.22)">
     <use xlink:href="#DejaVuSans-30"/>
     <use xlink:href="#DejaVuSans-2e" x="63.623047"/>
     <use xlink:href="#DejaVuSans-35" x="95.410156"/>
    </g>
   </g>
   <g id="text_8">
    <!-- 0.5 -->
    <g transform="translate(462.506562 553.270625) scale(0.22 -0.22)">
     <use xlink:href="#DejaVuSans-30"/>
     <use xlink:href="#DejaVuSans-2e" x="63.623047"/>
     <use xlink:href="#DejaVuSans-35" x="95.410156"/>
    </g>
   </g>
   <g id="text_9">
    <!-- 1.0 -->
    <g transform="translate(179.306563 466.870625) scale(0.22 -0.22)">
     <use xlink:href="#DejaVuSans-31"/>
     <use xlink:href="#DejaVuSans-2e" x="63.623047"/>
     <use xlink:href="#DejaVuSans-30" x="95.410156"/>
    </g>
   </g>
  </g>
 </g>
 <defs>
  <clipPath id="p9aad79bff4">
   <rect x="0" y="0" width="576" height="576"/>
  </clipPath>
 </defs>
</svg>
