<?xml version="1.0" encoding="utf-8" standalone="no"?>
<!DOCTYPE svg PUBLIC "-//W3C//DTD SVG 1.1//EN"
  "http://www.w3.org/Graphics/SVG/1.1/DTD/svg11.dtd">
<svg xmlns:xlink="http://www.w3.org/1999/xlink" width="432pt" height="432pt" viewBox="0 0 432 432" xmlns="http://www.w3.org/2000/svg" version="1.1">
 <metadata>
  <rdf:RDF xmlns:dc="http://purl.org/dc/elements/1.1/" xmlns:cc="http://creativecommons.org/ns#" xmlns:rdf="http://www.w3.org/1999/02/22-rdf-syntax-ns#">
   <cc:Work>
    <dc:type rdf:resource="http://purl.org/dc/dcmitype/StillImage"/>
    <dc:date>2024-07-28T22:25:26.649659</dc:date>
    <dc:format>image/svg+xml</dc:format>
    <dc:creator>
     <cc:Agent>
      <dc:title>Matplotlib v3.9.1, https://matplotlib.org/</dc:title>
     </cc:Agent>
    </dc:creator>
   </cc:Work>
  </rdf:RDF>
 </metadata>
 <defs>
  <style type="text/css">*{stroke-linejoin: round; stroke-linecap: butt}</style>
 </defs>
 <g id="figure_1">
  <g id="patch_1">
   <path d="M 0 432 
L 432 432 
L 432 0 
L 0 0 
z
" style="fill: #ffffff"/>
  </g>
  <g id="axes_1">
   <g id="PatchCollection_1">
    <defs>
     <path id="m9f7291fde6" d="M 388.8 -194.4 
C 394.528387 -194.4 400.022925 -196.675912 404.073506 -200.726494 
C 408.124088 -204.777075 410.4 -210.271613 410.4 -216 
C 410.4 -221.728387 408.124088 -227.222925 404.073506 -231.273506 
C 400.022925 -235.324088 394.528387 -237.6 388.8 -237.6 
C 383.071613 -237.6 377.577075 -235.324088 373.526494 -231.273506 
C 369.475912 -227.222925 367.2 -221.728387 367.2 -216 
C 367.2 -210.271613 369.475912 -204.777075 373.526494 -200.726494 
C 377.577075 -196.675912 383.071613 -194.4 388.8 -194.4 
z
" style="stroke: #e6e6e6"/>
    </defs>
    <g clip-path="url(#p14a1b1e2c1)">
     <use xlink:href="#m9f7291fde6" x="0" y="432" style="fill: #2653de; stroke: #e6e6e6"/>
    </g>
   </g>
   <g id="PatchCollection_2">
    <defs>
     <path id="mbeff445c7e" d="M 216 -367.2 
C 221.728387 -367.2 227.222925 -369.475912 231.273506 -373.526494 
C 235.324088 -377.577075 237.6 -383.071613 237.6 -388.8 
C 237.6 -394.528387 235.324088 -400.022925 231.273506 -404.073506 
C 227.222925 -408.124088 221.728387 -410.4 216 -410.4 
C 210.271613 -410.4 204.777075 -408.124088 200.726494 -404.073506 
C 196.675912 -400.022925 194.4 -394.528387 194.4 -388.8 
C 194.4 -383.071613 196.675912 -377.577075 200.726494 -373.526494 
C 204.777075 -369.475912 210.271613 -367.2 216 -367.2 
z
" style="stroke: #e6e6e6"/>
    </defs>
    <g clip-path="url(#p14a1b1e2c1)">
     <use xlink:href="#mbeff445c7e" x="0" y="432" style="fill: #2653de; stroke: #e6e6e6"/>
    </g>
   </g>
   <g id="PatchCollection_3">
    <defs>
     <path id="m50d1ca4f06" d="M 43.2 -194.4 
C 48.928387 -194.4 54.422925 -196.675912 58.473506 -200.726494 
C 62.524088 -204.777075 64.8 -210.271613 64.8 -216 
C 64.8 -221.728387 62.524088 -227.222925 58.473506 -231.273506 
C 54.422925 -235.324088 48.928387 -237.6 43.2 -237.6 
C 37.471613 -237.6 31.977075 -235.324088 27.926494 -231.273506 
C 23.875912 -227.222925 21.6 -221.728387 21.6 -216 
C 21.6 -210.271613 23.875912 -204.777075 27.926494 -200.726494 
C 31.977075 -196.675912 37.471613 -194.4 43.2 -194.4 
z
" style="stroke: #e6e6e6"/>
    </defs>
    <g clip-path="url(#p14a1b1e2c1)">
     <use xlink:href="#m50d1ca4f06" x="0" y="432" style="fill: #2653de; stroke: #e6e6e6"/>
    </g>
   </g>
   <g id="PatchCollection_4">
    <defs>
     <path id="me145992b9b" d="M 216 -21.6 
C 221.728387 -21.6 227.222925 -23.875912 231.273506 -27.926494 
C 235.324088 -31.977075 237.6 -37.471613 237.6 -43.2 
C 237.6 -48.928387 235.324088 -54.422925 231.273506 -58.473506 
C 227.222925 -62.524088 221.728387 -64.8 216 -64.8 
C 210.271613 -64.8 204.777075 -62.524088 200.726494 -58.473506 
C 196.675912 -54.422925 194.4 -48.928387 194.4 -43.2 
C 194.4 -37.471613 196.675912 -31.977075 200.726494 -27.926494 
C 204.777075 -23.875912 210.271613 -21.6 216 -21.6 
z
" style="stroke: #e6e6e6"/>
    </defs>
    <g clip-path="url(#p14a1b1e2c1)">
     <use xlink:href="#me145992b9b" x="0" y="432" style="fill: #2653de; stroke: #e6e6e6"/>
    </g>
   </g>
   <g id="PatchCollection_5">
    <defs>
     <path id="ma356510963" d="M 235.855558 -378.108545 
L 249.296244 -371.388203 
L 247.463423 -369.555382 
L 379.635896 -237.382909 
L 376.581195 -234.328208 
L 244.408722 -366.500681 
L 242.575901 -364.66786 
z
" style="stroke: #a3a3a3; stroke-opacity: 0.5"/>
    </defs>
    <g clip-path="url(#p14a1b1e2c1)">
     <use xlink:href="#ma356510963" x="0" y="432" style="fill: #a3a3a3; fill-opacity: 0.5; stroke: #a3a3a3; stroke-opacity: 0.5"/>
    </g>
   </g>
   <g id="PatchCollection_6">
    <defs>
     <path id="m1c706255bc" d="M 64.8 -222.48 
L 79.056 -227.232 
L 79.056 -224.64 
L 367.2 -224.64 
L 367.2 -220.32 
L 79.056 -220.32 
L 79.056 -217.728 
z
" style="stroke: #a3a3a3; stroke-opacity: 0.5"/>
    </defs>
    <g clip-path="url(#p14a1b1e2c1)">
     <use xlink:href="#m1c706255bc" x="0" y="432" style="fill: #a3a3a3; fill-opacity: 0.5; stroke: #a3a3a3; stroke-opacity: 0.5"/>
    </g>
   </g>
   <g id="PatchCollection_7">
    <path d="M 234.706149 32.4 
C 236.362663 29.530833 237.33707 26.318643 237.553753 23.012708 
C 237.770435 19.706772 237.223639 16.394878 235.955798 13.334038 
C 234.687957 10.273198 232.732737 7.544692 230.24187 5.36026 
C 227.751002 3.175828 224.790632 1.593477 221.590491 0.736002 
C 218.390351 -0.121473 215.035419 -0.231302 211.786049 0.415038 
C 208.536679 1.061378 205.479156 2.446724 202.850753 4.463568 
C 200.22235 6.480412 198.092864 9.075199 196.627549 12.046564 
C 195.162233 15.01793 194.4 18.286971 194.4 21.6 
L 195.696 21.6 
C 195.696 18.485753 196.412499 15.412854 197.789896 12.61977 
C 199.167292 9.826687 201.169009 7.387587 203.639708 5.491754 
C 206.110407 3.59592 208.984478 2.293695 212.038886 1.686136 
C 215.093294 1.078576 218.24693 1.181815 221.255062 1.987842 
C 224.263194 2.793869 227.045942 4.281279 229.387357 6.334645 
C 231.728773 8.388011 233.566679 10.952806 234.75845 13.829996 
C 235.950221 16.707185 236.464209 19.820366 236.260528 22.927945 
C 236.056846 26.035525 235.140903 29.054983 233.58378 31.752 
z
" clip-path="url(#p14a1b1e2c1)" style="fill: #a3a3a3; stroke: #a3a3a3"/>
    <path d="M 186.408 21.6 
L 203.688 21.6 
L 195.048 28.08 
z
" clip-path="url(#p14a1b1e2c1)" style="fill: #a3a3a3; stroke: #a3a3a3"/>
   </g>
   <g id="PatchCollection_8">
    <defs>
     <path id="me4593cdd6a" d="M 53.891455 -235.855558 
L 60.611797 -249.296244 
L 62.444618 -247.463423 
L 194.617091 -379.635896 
L 197.671792 -376.581195 
L 65.499319 -244.408722 
L 67.33214 -242.575901 
z
" style="stroke: #a3a3a3; stroke-opacity: 0.5"/>
    </defs>
    <g clip-path="url(#p14a1b1e2c1)">
     <use xlink:href="#me4593cdd6a" x="0" y="432" style="fill: #a3a3a3; fill-opacity: 0.5; stroke: #a3a3a3; stroke-opacity: 0.5"/>
    </g>
   </g>
   <g id="PatchCollection_9">
    <defs>
     <path id="m25d925cc27" d="M 205.308545 -368.944442 
L 198.588203 -355.503756 
L 196.755382 -357.336577 
L 64.582909 -225.164104 
L 61.528208 -228.218805 
L 193.700681 -360.391278 
L 191.86786 -362.224099 
z
" style="stroke: #a3a3a3; stroke-opacity: 0.5"/>
    </defs>
    <g clip-path="url(#p14a1b1e2c1)">
     <use xlink:href="#m25d925cc27" x="0" y="432" style="fill: #a3a3a3; fill-opacity: 0.5; stroke: #a3a3a3; stroke-opacity: 0.5"/>
    </g>
   </g>
   <g id="PatchCollection_10">
    <path d="M 61.906149 205.2 
C 63.562663 202.330833 64.53707 199.118643 64.753753 195.812708 
C 64.970435 192.506772 64.423639 189.194878 63.155798 186.134038 
C 61.887957 183.073198 59.932737 180.344692 57.44187 178.16026 
C 54.951002 175.975828 51.990632 174.393477 48.790491 173.536002 
C 45.590351 172.678527 42.235419 172.568698 38.986049 173.215038 
C 35.736679 173.861378 32.679156 175.246724 30.050753 177.263568 
C 27.42235 179.280412 25.292864 181.875199 23.827549 184.846564 
C 22.362233 187.81793 21.6 191.086971 21.6 194.4 
L 22.896 194.4 
C 22.896 191.285753 23.612499 188.212854 24.989896 185.41977 
C 26.367292 182.626687 28.369009 180.187587 30.839708 178.291754 
C 33.310407 176.39592 36.184478 175.093695 39.238886 174.486136 
C 42.293294 173.878576 45.44693 173.981815 48.455062 174.787842 
C 51.463194 175.593869 54.245942 177.081279 56.587357 179.134645 
C 58.928773 181.188011 60.766679 183.752806 61.95845 186.629996 
C 63.150221 189.507185 63.664209 192.620366 63.460528 195.727945 
C 63.256846 198.835525 62.340903 201.854983 60.78378 204.552 
z
" clip-path="url(#p14a1b1e2c1)" style="fill: #a3a3a3; stroke: #a3a3a3"/>
    <path d="M 13.608 194.4 
L 30.888 194.4 
L 22.248 200.88 
z
" clip-path="url(#p14a1b1e2c1)" style="fill: #a3a3a3; stroke: #a3a3a3"/>
   </g>
   <g id="PatchCollection_11">
    <defs>
     <path id="md6854c9e0b" d="M 63.055558 -205.308545 
L 76.496244 -198.588203 
L 74.663423 -196.755382 
L 206.835896 -64.582909 
L 203.781195 -61.528208 
L 71.608722 -193.700681 
L 69.775901 -191.86786 
z
" style="stroke: #a3a3a3"/>
    </defs>
    <g clip-path="url(#p14a1b1e2c1)">
     <use xlink:href="#md6854c9e0b" x="0" y="432" style="fill: #a3a3a3; stroke: #a3a3a3"/>
    </g>
   </g>
   <g id="text_1">
    <!-- 1262 -->
    <g style="fill: #ffffff" transform="translate(376.075 218.759375) scale(0.1 -0.1)">
     <defs>
      <path id="DejaVuSans-31" d="M 794 531 
L 1825 531 
L 1825 4091 
L 703 3866 
L 703 4441 
L 1819 4666 
L 2450 4666 
L 2450 531 
L 3481 531 
L 3481 0 
L 794 0 
L 794 531 
z
" transform="scale(0.015625)"/>
      <path id="DejaVuSans-32" d="M 1228 531 
L 3431 531 
L 3431 0 
L 469 0 
L 469 531 
Q 828 903 1448 1529 
Q 2069 2156 2228 2338 
Q 2531 2678 2651 2914 
Q 2772 3150 2772 3378 
Q 2772 3750 2511 3984 
Q 2250 4219 1831 4219 
Q 1534 4219 1204 4116 
Q 875 4013 500 3803 
L 500 4441 
Q 881 4594 1212 4672 
Q 1544 4750 1819 4750 
Q 2544 4750 2975 4387 
Q 3406 4025 3406 3419 
Q 3406 3131 3298 2873 
Q 3191 2616 2906 2266 
Q 2828 2175 2409 1742 
Q 1991 1309 1228 531 
z
" transform="scale(0.015625)"/>
      <path id="DejaVuSans-36" d="M 2113 2584 
Q 1688 2584 1439 2293 
Q 1191 2003 1191 1497 
Q 1191 994 1439 701 
Q 1688 409 2113 409 
Q 2538 409 2786 701 
Q 3034 994 3034 1497 
Q 3034 2003 2786 2293 
Q 2538 2584 2113 2584 
z
M 3366 4563 
L 3366 3988 
Q 3128 4100 2886 4159 
Q 2644 4219 2406 4219 
Q 1781 4219 1451 3797 
Q 1122 3375 1075 2522 
Q 1259 2794 1537 2939 
Q 1816 3084 2150 3084 
Q 2853 3084 3261 2657 
Q 3669 2231 3669 1497 
Q 3669 778 3244 343 
Q 2819 -91 2113 -91 
Q 1303 -91 875 529 
Q 447 1150 447 2328 
Q 447 3434 972 4092 
Q 1497 4750 2381 4750 
Q 2619 4750 2861 4703 
Q 3103 4656 3366 4563 
z
" transform="scale(0.015625)"/>
     </defs>
     <use xlink:href="#DejaVuSans-31"/>
     <use xlink:href="#DejaVuSans-32" x="63.623047"/>
     <use xlink:href="#DejaVuSans-36" x="127.246094"/>
     <use xlink:href="#DejaVuSans-32" x="190.869141"/>
    </g>
   </g>
   <g id="text_2">
    <!-- 1595 -->
    <g style="fill: #ffffff" transform="translate(202.084375 45.959375) scale(0.1 -0.1)">
     <defs>
      <path id="DejaVuSans-Bold-31" d="M 750 831 
L 1813 831 
L 1813 3847 
L 722 3622 
L 722 4441 
L 1806 4666 
L 2950 4666 
L 2950 831 
L 4013 831 
L 4013 0 
L 750 0 
L 750 831 
z
" transform="scale(0.015625)"/>
      <path id="DejaVuSans-Bold-35" d="M 678 4666 
L 3669 4666 
L 3669 3781 
L 1638 3781 
L 1638 3059 
Q 1775 3097 1914 3117 
Q 2053 3138 2203 3138 
Q 3056 3138 3531 2711 
Q 4006 2284 4006 1522 
Q 4006 766 3489 337 
Q 2972 -91 2053 -91 
Q 1656 -91 1267 -14 
Q 878 63 494 219 
L 494 1166 
Q 875 947 1217 837 
Q 1559 728 1863 728 
Q 2300 728 2551 942 
Q 2803 1156 2803 1522 
Q 2803 1891 2551 2103 
Q 2300 2316 1863 2316 
Q 1603 2316 1309 2248 
Q 1016 2181 678 2041 
L 678 4666 
z
" transform="scale(0.015625)"/>
      <path id="DejaVuSans-Bold-39" d="M 641 103 
L 641 966 
Q 928 831 1190 764 
Q 1453 697 1709 697 
Q 2247 697 2547 995 
Q 2847 1294 2900 1881 
Q 2688 1725 2447 1647 
Q 2206 1569 1925 1569 
Q 1209 1569 770 1986 
Q 331 2403 331 3084 
Q 331 3838 820 4291 
Q 1309 4744 2131 4744 
Q 3044 4744 3544 4128 
Q 4044 3513 4044 2388 
Q 4044 1231 3459 570 
Q 2875 -91 1856 -91 
Q 1528 -91 1228 -42 
Q 928 6 641 103 
z
M 2125 2350 
Q 2441 2350 2600 2554 
Q 2759 2759 2759 3169 
Q 2759 3575 2600 3781 
Q 2441 3988 2125 3988 
Q 1809 3988 1650 3781 
Q 1491 3575 1491 3169 
Q 1491 2759 1650 2554 
Q 1809 2350 2125 2350 
z
" transform="scale(0.015625)"/>
     </defs>
     <use xlink:href="#DejaVuSans-Bold-31"/>
     <use xlink:href="#DejaVuSans-Bold-35" x="69.580078"/>
     <use xlink:href="#DejaVuSans-Bold-39" x="139.160156"/>
     <use xlink:href="#DejaVuSans-Bold-35" x="208.740234"/>
    </g>
   </g>
   <g id="text_3">
    <!-- 2165 -->
    <g style="fill: #ffffff" transform="translate(30.475 218.759375) scale(0.1 -0.1)">
     <defs>
      <path id="DejaVuSans-35" d="M 691 4666 
L 3169 4666 
L 3169 4134 
L 1269 4134 
L 1269 2991 
Q 1406 3038 1543 3061 
Q 1681 3084 1819 3084 
Q 2600 3084 3056 2656 
Q 3513 2228 3513 1497 
Q 3513 744 3044 326 
Q 2575 -91 1722 -91 
Q 1428 -91 1123 -41 
Q 819 9 494 109 
L 494 744 
Q 775 591 1075 516 
Q 1375 441 1709 441 
Q 2250 441 2565 725 
Q 2881 1009 2881 1497 
Q 2881 1984 2565 2268 
Q 2250 2553 1709 2553 
Q 1456 2553 1204 2497 
Q 953 2441 691 2322 
L 691 4666 
z
" transform="scale(0.015625)"/>
     </defs>
     <use xlink:href="#DejaVuSans-32"/>
     <use xlink:href="#DejaVuSans-31" x="63.623047"/>
     <use xlink:href="#DejaVuSans-36" x="127.246094"/>
     <use xlink:href="#DejaVuSans-35" x="190.869141"/>
    </g>
   </g>
   <g id="text_4">
    <!-- 3780 -->
    <g style="fill: #ffffff" transform="translate(203.275 391.559375) scale(0.1 -0.1)">
     <defs>
      <path id="DejaVuSans-33" d="M 2597 2516 
Q 3050 2419 3304 2112 
Q 3559 1806 3559 1356 
Q 3559 666 3084 287 
Q 2609 -91 1734 -91 
Q 1441 -91 1130 -33 
Q 819 25 488 141 
L 488 750 
Q 750 597 1062 519 
Q 1375 441 1716 441 
Q 2309 441 2620 675 
Q 2931 909 2931 1356 
Q 2931 1769 2642 2001 
Q 2353 2234 1838 2234 
L 1294 2234 
L 1294 2753 
L 1863 2753 
Q 2328 2753 2575 2939 
Q 2822 3125 2822 3475 
Q 2822 3834 2567 4026 
Q 2313 4219 1838 4219 
Q 1578 4219 1281 4162 
Q 984 4106 628 3988 
L 628 4550 
Q 988 4650 1302 4700 
Q 1616 4750 1894 4750 
Q 2613 4750 3031 4423 
Q 3450 4097 3450 3541 
Q 3450 3153 3228 2886 
Q 3006 2619 2597 2516 
z
" transform="scale(0.015625)"/>
      <path id="DejaVuSans-37" d="M 525 4666 
L 3525 4666 
L 3525 4397 
L 1831 0 
L 1172 0 
L 2766 4134 
L 525 4134 
L 525 4666 
z
" transform="scale(0.015625)"/>
      <path id="DejaVuSans-38" d="M 2034 2216 
Q 1584 2216 1326 1975 
Q 1069 1734 1069 1313 
Q 1069 891 1326 650 
Q 1584 409 2034 409 
Q 2484 409 2743 651 
Q 3003 894 3003 1313 
Q 3003 1734 2745 1975 
Q 2488 2216 2034 2216 
z
M 1403 2484 
Q 997 2584 770 2862 
Q 544 3141 544 3541 
Q 544 4100 942 4425 
Q 1341 4750 2034 4750 
Q 2731 4750 3128 4425 
Q 3525 4100 3525 3541 
Q 3525 3141 3298 2862 
Q 3072 2584 2669 2484 
Q 3125 2378 3379 2068 
Q 3634 1759 3634 1313 
Q 3634 634 3220 271 
Q 2806 -91 2034 -91 
Q 1263 -91 848 271 
Q 434 634 434 1313 
Q 434 1759 690 2068 
Q 947 2378 1403 2484 
z
M 1172 3481 
Q 1172 3119 1398 2916 
Q 1625 2713 2034 2713 
Q 2441 2713 2670 2916 
Q 2900 3119 2900 3481 
Q 2900 3844 2670 4047 
Q 2441 4250 2034 4250 
Q 1625 4250 1398 4047 
Q 1172 3844 1172 3481 
z
" transform="scale(0.015625)"/>
      <path id="DejaVuSans-30" d="M 2034 4250 
Q 1547 4250 1301 3770 
Q 1056 3291 1056 2328 
Q 1056 1369 1301 889 
Q 1547 409 2034 409 
Q 2525 409 2770 889 
Q 3016 1369 3016 2328 
Q 3016 3291 2770 3770 
Q 2525 4250 2034 4250 
z
M 2034 4750 
Q 2819 4750 3233 4129 
Q 3647 3509 3647 2328 
Q 3647 1150 3233 529 
Q 2819 -91 2034 -91 
Q 1250 -91 836 529 
Q 422 1150 422 2328 
Q 422 3509 836 4129 
Q 1250 4750 2034 4750 
z
" transform="scale(0.015625)"/>
     </defs>
     <use xlink:href="#DejaVuSans-33"/>
     <use xlink:href="#DejaVuSans-37" x="63.623047"/>
     <use xlink:href="#DejaVuSans-38" x="127.246094"/>
     <use xlink:href="#DejaVuSans-30" x="190.869141"/>
    </g>
   </g>
   <g id="text_5">
    <!-- 0.5 -->
    <g transform="translate(342.622796 169.536809) scale(0.1 -0.1)">
     <defs>
      <path id="DejaVuSans-2e" d="M 684 794 
L 1344 794 
L 1344 0 
L 684 0 
L 684 794 
z
" transform="scale(0.015625)"/>
     </defs>
     <use xlink:href="#DejaVuSans-30"/>
     <use xlink:href="#DejaVuSans-2e" x="63.623047"/>
     <use xlink:href="#DejaVuSans-35" x="95.410156"/>
    </g>
   </g>
   <g id="text_6">
    <!-- 0.5 -->
    <g transform="translate(298.768437 210.983375) scale(0.1 -0.1)">
     <use xlink:href="#DejaVuSans-30"/>
     <use xlink:href="#DejaVuSans-2e" x="63.623047"/>
     <use xlink:href="#DejaVuSans-35" x="95.410156"/>
    </g>
   </g>
   <g id="text_7">
    <!-- 0.5 -->
    <g transform="translate(208.048438 17.879375) scale(0.1 -0.1)">
     <use xlink:href="#DejaVuSans-30"/>
     <use xlink:href="#DejaVuSans-2e" x="63.623047"/>
     <use xlink:href="#DejaVuSans-35" x="95.410156"/>
    </g>
   </g>
   <g id="text_8">
    <!-- 0.5 -->
    <g transform="translate(158.825871 84.185017) scale(0.1 -0.1)">
     <use xlink:href="#DejaVuSans-30"/>
     <use xlink:href="#DejaVuSans-2e" x="63.623047"/>
     <use xlink:href="#DejaVuSans-35" x="95.410156"/>
    </g>
   </g>
   <g id="text_9">
    <!-- 0.5 -->
    <g transform="translate(84.471004 180.533733) scale(0.1 -0.1)">
     <use xlink:href="#DejaVuSans-30"/>
     <use xlink:href="#DejaVuSans-2e" x="63.623047"/>
     <use xlink:href="#DejaVuSans-35" x="95.410156"/>
    </g>
   </g>
   <g id="text_10">
    <!-- 0.5 -->
    <g transform="translate(35.248437 190.679375) scale(0.1 -0.1)">
     <use xlink:href="#DejaVuSans-30"/>
     <use xlink:href="#DejaVuSans-2e" x="63.623047"/>
     <use xlink:href="#DejaVuSans-35" x="95.410156"/>
    </g>
   </g>
   <g id="text_11">
    <!-- 1 -->
    <g transform="translate(174.593108 342.336809) scale(0.1 -0.1)">
     <use xlink:href="#DejaVuSans-31"/>
    </g>
   </g>
  </g>
 </g>
 <defs>
  <clipPath id="p14a1b1e2c1">
   <rect x="0" y="0" width="432" height="432"/>
  </clipPath>
 </defs>
</svg>
