<?xml version="1.0" encoding="utf-8" standalone="no"?>
<!DOCTYPE svg PUBLIC "-//W3C//DTD SVG 1.1//EN"
  "http://www.w3.org/Graphics/SVG/1.1/DTD/svg11.dtd">
<svg xmlns:xlink="http://www.w3.org/1999/xlink" width="720pt" height="288pt" viewBox="0 0 720 288" xmlns="http://www.w3.org/2000/svg" version="1.1">
 <metadata>
  <rdf:RDF xmlns:dc="http://purl.org/dc/elements/1.1/" xmlns:cc="http://creativecommons.org/ns#" xmlns:rdf="http://www.w3.org/1999/02/22-rdf-syntax-ns#">
   <cc:Work>
    <dc:type rdf:resource="http://purl.org/dc/dcmitype/StillImage"/>
    <dc:date>2025-05-08T22:23:55.649950</dc:date>
    <dc:format>image/svg+xml</dc:format>
    <dc:creator>
     <cc:Agent>
      <dc:title>Matplotlib v3.5.3, https://matplotlib.org/</dc:title>
     </cc:Agent>
    </dc:creator>
   </cc:Work>
  </rdf:RDF>
 </metadata>
 <defs>
  <style type="text/css">*{stroke-linejoin: round; stroke-linecap: butt}</style>
 </defs>
 <g id="figure_1">
  <g id="patch_1">
   <path d="M 0 288 
L 720 288 
L 720 0 
L 0 0 
z
" style="fill: #ffffff"/>
  </g>
  <g id="axes_1">
   <g id="PatchCollection_1">
    <defs>
     <path id="mf4946b7c55" d="M 72 -108 
C 81.547312 -108 90.704875 -111.793187 97.455844 -118.544156 
C 104.206813 -125.295125 108 -134.452688 108 -144 
C 108 -153.547312 104.206813 -162.704875 97.455844 -169.455844 
C 90.704875 -176.206813 81.547312 -180 72 -180 
C 62.452688 -180 53.295125 -176.206813 46.544156 -169.455844 
C 39.793187 -162.704875 36 -153.547312 36 -144 
C 36 -134.452688 39.793187 -125.295125 46.544156 -118.544156 
C 53.295125 -111.793187 62.452688 -108 72 -108 
z
" style="stroke: #e6e6e6"/>
    </defs>
    <g clip-path="url(#p3188e34ea6)">
     <use xlink:href="#mf4946b7c55" x="0" y="288" style="fill: #2693de; stroke: #e6e6e6"/>
    </g>
   </g>
   <g id="PatchCollection_2">
    <defs>
     <path id="m91ac0793f7" d="M 648 -108 
C 657.547312 -108 666.704875 -111.793187 673.455844 -118.544156 
C 680.206813 -125.295125 684 -134.452688 684 -144 
C 684 -153.547312 680.206813 -162.704875 673.455844 -169.455844 
C 666.704875 -176.206813 657.547312 -180 648 -180 
C 638.452688 -180 629.295125 -176.206813 622.544156 -169.455844 
C 615.793187 -162.704875 612 -153.547312 612 -144 
C 612 -134.452688 615.793187 -125.295125 622.544156 -118.544156 
C 629.295125 -111.793187 638.452688 -108 648 -108 
z
" style="stroke: #e6e6e6"/>
    </defs>
    <g clip-path="url(#p3188e34ea6)">
     <use xlink:href="#m91ac0793f7" x="0" y="288" style="fill: #2693de; stroke: #e6e6e6"/>
    </g>
   </g>
   <g id="PatchCollection_3">
    <path d="M 103.176915 126 
C 105.937772 121.218054 107.561784 115.864405 107.922921 110.354513 
C 108.284059 104.84462 107.372732 99.324796 105.259663 94.223396 
C 103.146594 89.121997 99.887895 84.574487 95.736449 80.933767 
C 91.585004 77.293047 86.651053 74.655795 81.317486 73.22667 
C 75.983918 71.797545 70.392365 71.614497 64.976748 72.69173 
C 59.561131 73.768963 54.46526 76.077873 50.084589 79.43928 
C 45.703917 82.800687 42.154773 87.125331 39.712581 92.077607 
C 37.270389 97.029883 36 102.478285 36 108 
L 38.16 108 
C 38.16 102.809588 39.354166 97.68809 41.649826 93.032951 
C 43.945487 88.377811 47.281682 84.312646 51.399513 81.152923 
C 55.517344 77.9932 60.307464 75.822825 65.398144 74.810226 
C 70.488823 73.797627 75.744883 73.969692 80.758436 75.31307 
C 85.77199 76.656448 90.409904 79.135464 94.312262 82.557741 
C 98.214621 85.980018 101.277799 90.254677 103.264083 95.049993 
C 105.250368 99.845308 106.107015 105.033943 105.767546 110.213242 
C 105.428077 115.392541 103.901506 120.424971 101.3063 124.92 
L 103.176915 126 
z
" clip-path="url(#p3188e34ea6)" style="fill: #a3a3a3; stroke: #a3a3a3"/>
    <path d="M 22.68 108 
L 51.48 108 
L 37.08 118.8 
z
" clip-path="url(#p3188e34ea6)" style="fill: #a3a3a3; stroke: #a3a3a3"/>
   </g>
   <g id="PatchCollection_4">
    <defs>
     <path id="ma0394747de" d="M 615.6 -158.4 
L 594 -151.2 
L 594 -157.32 
L 108 -157.32 
L 108 -159.48 
L 594 -159.48 
L 594 -165.6 
z
" style="stroke: #a3a3a3"/>
    </defs>
    <g clip-path="url(#p3188e34ea6)">
     <use xlink:href="#ma0394747de" x="0" y="288" style="fill: #a3a3a3; stroke: #a3a3a3"/>
    </g>
   </g>
   <g id="PatchCollection_5">
    <path d="M 679.176915 126 
C 681.937772 121.218054 683.561784 115.864405 683.922921 110.354513 
C 684.284059 104.84462 683.372732 99.324796 681.259663 94.223396 
C 679.146594 89.121997 675.887895 84.574487 671.736449 80.933767 
C 667.585004 77.293047 662.651053 74.655795 657.317486 73.22667 
C 651.983918 71.797545 646.392365 71.614497 640.976748 72.69173 
C 635.561131 73.768963 630.46526 76.077873 626.084589 79.43928 
C 621.703917 82.800687 618.154773 87.125331 615.712581 92.077607 
C 613.270389 97.029883 612 102.478285 612 108 
L 614.16 108 
C 614.16 102.809588 615.354166 97.68809 617.649826 93.032951 
C 619.945487 88.377811 623.281682 84.312646 627.399513 81.152923 
C 631.517344 77.9932 636.307464 75.822825 641.398144 74.810226 
C 646.488823 73.797627 651.744883 73.969692 656.758436 75.31307 
C 661.77199 76.656448 666.409904 79.135464 670.312262 82.557741 
C 674.214621 85.980018 677.277799 90.254677 679.264083 95.049993 
C 681.250368 99.845308 682.107015 105.033943 681.767546 110.213242 
C 681.428077 115.392541 679.901506 120.424971 677.3063 124.92 
L 679.176915 126 
z
" clip-path="url(#p3188e34ea6)" style="fill: #a3a3a3; stroke: #a3a3a3"/>
    <path d="M 598.68 108 
L 627.48 108 
L 613.08 118.8 
z
" clip-path="url(#p3188e34ea6)" style="fill: #a3a3a3; stroke: #a3a3a3"/>
   </g>
   <g id="text_1">
    <!-- 8 -->
    <g transform="translate(64.346406 150.070625)scale(0.22 -0.22)">
     <defs>
      <path id="DejaVuSans-Bold-38" d="M 2228 2088 
Q 1891 2088 1709 1903 
Q 1528 1719 1528 1375 
Q 1528 1031 1709 848 
Q 1891 666 2228 666 
Q 2563 666 2741 848 
Q 2919 1031 2919 1375 
Q 2919 1722 2741 1905 
Q 2563 2088 2228 2088 
z
M 1350 2484 
Q 925 2613 709 2878 
Q 494 3144 494 3541 
Q 494 4131 934 4440 
Q 1375 4750 2228 4750 
Q 3075 4750 3515 4442 
Q 3956 4134 3956 3541 
Q 3956 3144 3739 2878 
Q 3522 2613 3097 2484 
Q 3572 2353 3814 2058 
Q 4056 1763 4056 1313 
Q 4056 619 3595 264 
Q 3134 -91 2228 -91 
Q 1319 -91 855 264 
Q 391 619 391 1313 
Q 391 1763 633 2058 
Q 875 2353 1350 2484 
z
M 1631 3419 
Q 1631 3141 1786 2991 
Q 1941 2841 2228 2841 
Q 2509 2841 2662 2991 
Q 2816 3141 2816 3419 
Q 2816 3697 2662 3845 
Q 2509 3994 2228 3994 
Q 1941 3994 1786 3844 
Q 1631 3694 1631 3419 
z
" transform="scale(0.015625)"/>
     </defs>
     <use xlink:href="#DejaVuSans-Bold-38"/>
    </g>
   </g>
   <g id="text_2">
    <!-- 131 -->
    <g style="fill: #ffffff" transform="translate(627.00375 150.070625)scale(0.22 -0.22)">
     <defs>
      <path id="DejaVuSans-31" d="M 794 531 
L 1825 531 
L 1825 4091 
L 703 3866 
L 703 4441 
L 1819 4666 
L 2450 4666 
L 2450 531 
L 3481 531 
L 3481 0 
L 794 0 
L 794 531 
z
" transform="scale(0.015625)"/>
      <path id="DejaVuSans-33" d="M 2597 2516 
Q 3050 2419 3304 2112 
Q 3559 1806 3559 1356 
Q 3559 666 3084 287 
Q 2609 -91 1734 -91 
Q 1441 -91 1130 -33 
Q 819 25 488 141 
L 488 750 
Q 750 597 1062 519 
Q 1375 441 1716 441 
Q 2309 441 2620 675 
Q 2931 909 2931 1356 
Q 2931 1769 2642 2001 
Q 2353 2234 1838 2234 
L 1294 2234 
L 1294 2753 
L 1863 2753 
Q 2328 2753 2575 2939 
Q 2822 3125 2822 3475 
Q 2822 3834 2567 4026 
Q 2313 4219 1838 4219 
Q 1578 4219 1281 4162 
Q 984 4106 628 3988 
L 628 4550 
Q 988 4650 1302 4700 
Q 1616 4750 1894 4750 
Q 2613 4750 3031 4423 
Q 3450 4097 3450 3541 
Q 3450 3153 3228 2886 
Q 3006 2619 2597 2516 
z
" transform="scale(0.015625)"/>
     </defs>
     <use xlink:href="#DejaVuSans-31"/>
     <use xlink:href="#DejaVuSans-33" x="63.623047"/>
     <use xlink:href="#DejaVuSans-31" x="127.246094"/>
    </g>
   </g>
   <g id="text_3">
    <!-- 0.5 -->
    <g transform="translate(54.506563 103.270625)scale(0.22 -0.22)">
     <defs>
      <path id="DejaVuSans-30" d="M 2034 4250 
Q 1547 4250 1301 3770 
Q 1056 3291 1056 2328 
Q 1056 1369 1301 889 
Q 1547 409 2034 409 
Q 2525 409 2770 889 
Q 3016 1369 3016 2328 
Q 3016 3291 2770 3770 
Q 2525 4250 2034 4250 
z
M 2034 4750 
Q 2819 4750 3233 4129 
Q 3647 3509 3647 2328 
Q 3647 1150 3233 529 
Q 2819 -91 2034 -91 
Q 1250 -91 836 529 
Q 422 1150 422 2328 
Q 422 3509 836 4129 
Q 1250 4750 2034 4750 
z
" transform="scale(0.015625)"/>
      <path id="DejaVuSans-2e" d="M 684 794 
L 1344 794 
L 1344 0 
L 684 0 
L 684 794 
z
" transform="scale(0.015625)"/>
      <path id="DejaVuSans-35" d="M 691 4666 
L 3169 4666 
L 3169 4134 
L 1269 4134 
L 1269 2991 
Q 1406 3038 1543 3061 
Q 1681 3084 1819 3084 
Q 2600 3084 3056 2656 
Q 3513 2228 3513 1497 
Q 3513 744 3044 326 
Q 2575 -91 1722 -91 
Q 1428 -91 1123 -41 
Q 819 9 494 109 
L 494 744 
Q 775 591 1075 516 
Q 1375 441 1709 441 
Q 2250 441 2565 725 
Q 2881 1009 2881 1497 
Q 2881 1984 2565 2268 
Q 2250 2553 1709 2553 
Q 1456 2553 1204 2497 
Q 953 2441 691 2322 
L 691 4666 
z
" transform="scale(0.015625)"/>
     </defs>
     <use xlink:href="#DejaVuSans-30"/>
     <use xlink:href="#DejaVuSans-2e" x="63.623047"/>
     <use xlink:href="#DejaVuSans-35" x="95.410156"/>
    </g>
   </g>
   <g id="text_4">
    <!-- 0.5 -->
    <g transform="translate(187.706563 135.670625)scale(0.22 -0.22)">
     <use xlink:href="#DejaVuSans-30"/>
     <use xlink:href="#DejaVuSans-2e" x="63.623047"/>
     <use xlink:href="#DejaVuSans-35" x="95.410156"/>
    </g>
   </g>
   <g id="text_5">
    <!-- 1.0 -->
    <g transform="translate(630.506562 103.270625)scale(0.22 -0.22)">
     <use xlink:href="#DejaVuSans-31"/>
     <use xlink:href="#DejaVuSans-2e" x="63.623047"/>
     <use xlink:href="#DejaVuSans-30" x="95.410156"/>
    </g>
   </g>
  </g>
 </g>
 <defs>
  <clipPath id="p3188e34ea6">
   <rect x="0" y="0" width="720" height="288"/>
  </clipPath>
 </defs>
</svg>
