<?xml version="1.0" encoding="utf-8" standalone="no"?>
<!DOCTYPE svg PUBLIC "-//W3C//DTD SVG 1.1//EN"
  "http://www.w3.org/Graphics/SVG/1.1/DTD/svg11.dtd">
<svg xmlns:xlink="http://www.w3.org/1999/xlink" width="720pt" height="432pt" viewBox="0 0 720 432" xmlns="http://www.w3.org/2000/svg" version="1.1">
 <metadata>
  <rdf:RDF xmlns:dc="http://purl.org/dc/elements/1.1/" xmlns:cc="http://creativecommons.org/ns#" xmlns:rdf="http://www.w3.org/1999/02/22-rdf-syntax-ns#">
   <cc:Work>
    <dc:type rdf:resource="http://purl.org/dc/dcmitype/StillImage"/>
    <dc:date>2025-05-08T22:24:02.382828</dc:date>
    <dc:format>image/svg+xml</dc:format>
    <dc:creator>
     <cc:Agent>
      <dc:title>Matplotlib v3.5.3, https://matplotlib.org/</dc:title>
     </cc:Agent>
    </dc:creator>
   </cc:Work>
  </rdf:RDF>
 </metadata>
 <defs>
  <style type="text/css">*{stroke-linejoin: round; stroke-linecap: butt}</style>
 </defs>
 <g id="figure_1">
  <g id="patch_1">
   <path d="M 0 432 
L 720 432 
L 720 0 
L 0 0 
z
" style="fill: #ffffff"/>
  </g>
  <g id="axes_1">
   <g id="PatchCollection_1">
    <defs>
     <path id="m923ae231cd" d="M 144 -36 
C 153.547312 -36 162.704875 -39.793187 169.455844 -46.544156 
C 176.206813 -53.295125 180 -62.452688 180 -72 
C 180 -81.547312 176.206813 -90.704875 169.455844 -97.455844 
C 162.704875 -104.206813 153.547312 -108 144 -108 
C 134.452688 -108 125.295125 -104.206813 118.544156 -97.455844 
C 111.793187 -90.704875 108 -81.547312 108 -72 
C 108 -62.452688 111.793187 -53.295125 118.544156 -46.544156 
C 125.295125 -39.793187 134.452688 -36 144 -36 
z
" style="stroke: #e6e6e6"/>
    </defs>
    <g clip-path="url(#p6759017d0f)">
     <use xlink:href="#m923ae231cd" x="0" y="432" style="fill: #2693de; stroke: #e6e6e6"/>
    </g>
   </g>
   <g id="PatchCollection_2">
    <defs>
     <path id="mb831b361c2" d="M 576 -36 
C 585.547312 -36 594.704875 -39.793187 601.455844 -46.544156 
C 608.206813 -53.295125 612 -62.452688 612 -72 
C 612 -81.547312 608.206813 -90.704875 601.455844 -97.455844 
C 594.704875 -104.206813 585.547312 -108 576 -108 
C 566.452688 -108 557.295125 -104.206813 550.544156 -97.455844 
C 543.793187 -90.704875 540 -81.547312 540 -72 
C 540 -62.452688 543.793187 -53.295125 550.544156 -46.544156 
C 557.295125 -39.793187 566.452688 -36 576 -36 
z
" style="stroke: #e6e6e6"/>
    </defs>
    <g clip-path="url(#p6759017d0f)">
     <use xlink:href="#mb831b361c2" x="0" y="432" style="fill: #2693de; stroke: #e6e6e6"/>
    </g>
   </g>
   <g id="PatchCollection_3">
    <defs>
     <path id="m988816d951" d="M 144 -324 
C 153.547312 -324 162.704875 -327.793187 169.455844 -334.544156 
C 176.206813 -341.295125 180 -350.452688 180 -360 
C 180 -369.547312 176.206813 -378.704875 169.455844 -385.455844 
C 162.704875 -392.206813 153.547312 -396 144 -396 
C 134.452688 -396 125.295125 -392.206813 118.544156 -385.455844 
C 111.793187 -378.704875 108 -369.547312 108 -360 
C 108 -350.452688 111.793187 -341.295125 118.544156 -334.544156 
C 125.295125 -327.793187 134.452688 -324 144 -324 
z
" style="stroke: #e6e6e6"/>
    </defs>
    <g clip-path="url(#p6759017d0f)">
     <use xlink:href="#m988816d951" x="0" y="432" style="fill: #2693de; stroke: #e6e6e6"/>
    </g>
   </g>
   <g id="PatchCollection_4">
    <defs>
     <path id="m985ce713cf" d="M 543.6 -86.4 
L 522 -79.2 
L 522 -85.32 
L 180 -85.32 
L 180 -87.48 
L 522 -87.48 
L 522 -93.6 
z
" style="stroke: #a3a3a3"/>
    </defs>
    <g clip-path="url(#p6759017d0f)">
     <use xlink:href="#m985ce713cf" x="0" y="432" style="fill: #a3a3a3; stroke: #a3a3a3"/>
    </g>
   </g>
   <g id="PatchCollection_5">
    <path d="M 544.823085 378 
C 542.062228 382.781946 540.438216 388.135595 540.077079 393.645487 
C 539.715941 399.15538 540.627268 404.675204 542.740337 409.776604 
C 544.853406 414.878003 548.112105 419.425513 552.263551 423.066233 
C 556.414996 426.706953 561.348947 429.344205 566.682514 430.77333 
C 572.016082 432.202455 577.607635 432.385503 583.023252 431.30827 
C 588.438869 430.231037 593.53474 427.922127 597.915411 424.56072 
C 602.296083 421.199313 605.845227 416.874669 608.287419 411.922393 
C 610.729611 406.970117 612 401.521715 612 396 
L 609.84 396 
C 609.84 401.190412 608.645834 406.31191 606.350174 410.967049 
C 604.054513 415.622189 600.718318 419.687354 596.600487 422.847077 
C 592.482656 426.0068 587.692536 428.177175 582.601856 429.189774 
C 577.511177 430.202373 572.255117 430.030308 567.241564 428.68693 
C 562.22801 427.343552 557.590096 424.864536 553.687738 421.442259 
C 549.785379 418.019982 546.722201 413.745323 544.735917 408.950007 
C 542.749632 404.154692 541.892985 398.966057 542.232454 393.786758 
C 542.571923 388.607459 544.098494 383.575029 546.6937 379.08 
L 544.823085 378 
z
" clip-path="url(#p6759017d0f)" style="fill: #a3a3a3; stroke: #a3a3a3"/>
    <path d="M 596.52 396 
L 625.32 396 
L 610.92 385.2 
z
" clip-path="url(#p6759017d0f)" style="fill: #a3a3a3; stroke: #a3a3a3"/>
   </g>
   <g id="PatchCollection_6">
    <defs>
     <path id="me6eec338ec" d="M 179.306792 -302.422383 
L 201.607461 -297.831069 
L 198.541119 -292.53466 
L 540.541119 -94.53466 
L 539.458881 -92.66534 
L 197.458881 -290.66534 
L 194.392539 -285.368931 
z
" style="stroke: #a3a3a3"/>
    </defs>
    <g clip-path="url(#p6759017d0f)">
     <use xlink:href="#me6eec338ec" x="0" y="432" style="fill: #a3a3a3; stroke: #a3a3a3"/>
    </g>
   </g>
   <g id="PatchCollection_7">
    <path d="M 175.176915 54 
C 177.937772 49.218054 179.561784 43.864405 179.922921 38.354513 
C 180.284059 32.84462 179.372732 27.324796 177.259663 22.223396 
C 175.146594 17.121997 171.887895 12.574487 167.736449 8.933767 
C 163.585004 5.293047 158.651053 2.655795 153.317486 1.22667 
C 147.983918 -0.202455 142.392365 -0.385503 136.976748 0.69173 
C 131.561131 1.768963 126.46526 4.077873 122.084589 7.43928 
C 117.703917 10.800687 114.154773 15.125331 111.712581 20.077607 
C 109.270389 25.029883 108 30.478285 108 36 
L 110.16 36 
C 110.16 30.809588 111.354166 25.68809 113.649826 21.032951 
C 115.945487 16.377811 119.281682 12.312646 123.399513 9.152923 
C 127.517344 5.9932 132.307464 3.822825 137.398144 2.810226 
C 142.488823 1.797627 147.744883 1.969692 152.758436 3.31307 
C 157.77199 4.656448 162.409904 7.135464 166.312262 10.557741 
C 170.214621 13.980018 173.277799 18.254677 175.264083 23.049993 
C 177.250368 27.845308 178.107015 33.033943 177.767546 38.213242 
C 177.428077 43.392541 175.901506 48.424971 173.3063 52.92 
L 175.176915 54 
z
" clip-path="url(#p6759017d0f)" style="fill: #a3a3a3; stroke: #a3a3a3"/>
    <path d="M 94.68 36 
L 123.48 36 
L 109.08 46.8 
z
" clip-path="url(#p6759017d0f)" style="fill: #a3a3a3; stroke: #a3a3a3"/>
   </g>
   <g id="text_1">
    <!-- 8 -->
    <g style="fill: #ffffff" transform="translate(137.00125 366.070625)scale(0.22 -0.22)">
     <defs>
      <path id="DejaVuSans-38" d="M 2034 2216 
Q 1584 2216 1326 1975 
Q 1069 1734 1069 1313 
Q 1069 891 1326 650 
Q 1584 409 2034 409 
Q 2484 409 2743 651 
Q 3003 894 3003 1313 
Q 3003 1734 2745 1975 
Q 2488 2216 2034 2216 
z
M 1403 2484 
Q 997 2584 770 2862 
Q 544 3141 544 3541 
Q 544 4100 942 4425 
Q 1341 4750 2034 4750 
Q 2731 4750 3128 4425 
Q 3525 4100 3525 3541 
Q 3525 3141 3298 2862 
Q 3072 2584 2669 2484 
Q 3125 2378 3379 2068 
Q 3634 1759 3634 1313 
Q 3634 634 3220 271 
Q 2806 -91 2034 -91 
Q 1263 -91 848 271 
Q 434 634 434 1313 
Q 434 1759 690 2068 
Q 947 2378 1403 2484 
z
M 1172 3481 
Q 1172 3119 1398 2916 
Q 1625 2713 2034 2713 
Q 2441 2713 2670 2916 
Q 2900 3119 2900 3481 
Q 2900 3844 2670 4047 
Q 2441 4250 2034 4250 
Q 1625 4250 1398 4047 
Q 1172 3844 1172 3481 
z
" transform="scale(0.015625)"/>
     </defs>
     <use xlink:href="#DejaVuSans-38"/>
    </g>
   </g>
   <g id="text_2">
    <!-- 131 -->
    <g transform="translate(553.039219 366.070625)scale(0.22 -0.22)">
     <defs>
      <path id="DejaVuSans-Bold-31" d="M 750 831 
L 1813 831 
L 1813 3847 
L 722 3622 
L 722 4441 
L 1806 4666 
L 2950 4666 
L 2950 831 
L 4013 831 
L 4013 0 
L 750 0 
L 750 831 
z
" transform="scale(0.015625)"/>
      <path id="DejaVuSans-Bold-33" d="M 2981 2516 
Q 3453 2394 3698 2092 
Q 3944 1791 3944 1325 
Q 3944 631 3412 270 
Q 2881 -91 1863 -91 
Q 1503 -91 1142 -33 
Q 781 25 428 141 
L 428 1069 
Q 766 900 1098 814 
Q 1431 728 1753 728 
Q 2231 728 2486 893 
Q 2741 1059 2741 1369 
Q 2741 1688 2480 1852 
Q 2219 2016 1709 2016 
L 1228 2016 
L 1228 2791 
L 1734 2791 
Q 2188 2791 2409 2933 
Q 2631 3075 2631 3366 
Q 2631 3634 2415 3781 
Q 2200 3928 1806 3928 
Q 1516 3928 1219 3862 
Q 922 3797 628 3669 
L 628 4550 
Q 984 4650 1334 4700 
Q 1684 4750 2022 4750 
Q 2931 4750 3382 4451 
Q 3834 4153 3834 3553 
Q 3834 3144 3618 2883 
Q 3403 2622 2981 2516 
z
" transform="scale(0.015625)"/>
     </defs>
     <use xlink:href="#DejaVuSans-Bold-31"/>
     <use xlink:href="#DejaVuSans-Bold-33" x="69.580078"/>
     <use xlink:href="#DejaVuSans-Bold-31" x="139.160156"/>
    </g>
   </g>
   <g id="text_3">
    <!-- 962 -->
    <g style="fill: #ffffff" transform="translate(123.00375 78.070625)scale(0.22 -0.22)">
     <defs>
      <path id="DejaVuSans-39" d="M 703 97 
L 703 672 
Q 941 559 1184 500 
Q 1428 441 1663 441 
Q 2288 441 2617 861 
Q 2947 1281 2994 2138 
Q 2813 1869 2534 1725 
Q 2256 1581 1919 1581 
Q 1219 1581 811 2004 
Q 403 2428 403 3163 
Q 403 3881 828 4315 
Q 1253 4750 1959 4750 
Q 2769 4750 3195 4129 
Q 3622 3509 3622 2328 
Q 3622 1225 3098 567 
Q 2575 -91 1691 -91 
Q 1453 -91 1209 -44 
Q 966 3 703 97 
z
M 1959 2075 
Q 2384 2075 2632 2365 
Q 2881 2656 2881 3163 
Q 2881 3666 2632 3958 
Q 2384 4250 1959 4250 
Q 1534 4250 1286 3958 
Q 1038 3666 1038 3163 
Q 1038 2656 1286 2365 
Q 1534 2075 1959 2075 
z
" transform="scale(0.015625)"/>
      <path id="DejaVuSans-36" d="M 2113 2584 
Q 1688 2584 1439 2293 
Q 1191 2003 1191 1497 
Q 1191 994 1439 701 
Q 1688 409 2113 409 
Q 2538 409 2786 701 
Q 3034 994 3034 1497 
Q 3034 2003 2786 2293 
Q 2538 2584 2113 2584 
z
M 3366 4563 
L 3366 3988 
Q 3128 4100 2886 4159 
Q 2644 4219 2406 4219 
Q 1781 4219 1451 3797 
Q 1122 3375 1075 2522 
Q 1259 2794 1537 2939 
Q 1816 3084 2150 3084 
Q 2853 3084 3261 2657 
Q 3669 2231 3669 1497 
Q 3669 778 3244 343 
Q 2819 -91 2113 -91 
Q 1303 -91 875 529 
Q 447 1150 447 2328 
Q 447 3434 972 4092 
Q 1497 4750 2381 4750 
Q 2619 4750 2861 4703 
Q 3103 4656 3366 4563 
z
" transform="scale(0.015625)"/>
      <path id="DejaVuSans-32" d="M 1228 531 
L 3431 531 
L 3431 0 
L 469 0 
L 469 531 
Q 828 903 1448 1529 
Q 2069 2156 2228 2338 
Q 2531 2678 2651 2914 
Q 2772 3150 2772 3378 
Q 2772 3750 2511 3984 
Q 2250 4219 1831 4219 
Q 1534 4219 1204 4116 
Q 875 4013 500 3803 
L 500 4441 
Q 881 4594 1212 4672 
Q 1544 4750 1819 4750 
Q 2544 4750 2975 4387 
Q 3406 4025 3406 3419 
Q 3406 3131 3298 2873 
Q 3191 2616 2906 2266 
Q 2828 2175 2409 1742 
Q 1991 1309 1228 531 
z
" transform="scale(0.015625)"/>
     </defs>
     <use xlink:href="#DejaVuSans-39"/>
     <use xlink:href="#DejaVuSans-36" x="63.623047"/>
     <use xlink:href="#DejaVuSans-32" x="127.246094"/>
    </g>
   </g>
   <g id="text_4">
    <!-- 1.0 -->
    <g transform="translate(230.906563 351.670625)scale(0.22 -0.22)">
     <defs>
      <path id="DejaVuSans-31" d="M 794 531 
L 1825 531 
L 1825 4091 
L 703 3866 
L 703 4441 
L 1819 4666 
L 2450 4666 
L 2450 531 
L 3481 531 
L 3481 0 
L 794 0 
L 794 531 
z
" transform="scale(0.015625)"/>
      <path id="DejaVuSans-2e" d="M 684 794 
L 1344 794 
L 1344 0 
L 684 0 
L 684 794 
z
" transform="scale(0.015625)"/>
      <path id="DejaVuSans-30" d="M 2034 4250 
Q 1547 4250 1301 3770 
Q 1056 3291 1056 2328 
Q 1056 1369 1301 889 
Q 1547 409 2034 409 
Q 2525 409 2770 889 
Q 3016 1369 3016 2328 
Q 3016 3291 2770 3770 
Q 2525 4250 2034 4250 
z
M 2034 4750 
Q 2819 4750 3233 4129 
Q 3647 3509 3647 2328 
Q 3647 1150 3233 529 
Q 2819 -91 2034 -91 
Q 1250 -91 836 529 
Q 422 1150 422 2328 
Q 422 3509 836 4129 
Q 1250 4750 2034 4750 
z
" transform="scale(0.015625)"/>
     </defs>
     <use xlink:href="#DejaVuSans-31"/>
     <use xlink:href="#DejaVuSans-2e" x="63.623047"/>
     <use xlink:href="#DejaVuSans-30" x="95.410156"/>
    </g>
   </g>
   <g id="text_5">
    <!-- 0.5 -->
    <g transform="translate(558.506562 416.470625)scale(0.22 -0.22)">
     <defs>
      <path id="DejaVuSans-35" d="M 691 4666 
L 3169 4666 
L 3169 4134 
L 1269 4134 
L 1269 2991 
Q 1406 3038 1543 3061 
Q 1681 3084 1819 3084 
Q 2600 3084 3056 2656 
Q 3513 2228 3513 1497 
Q 3513 744 3044 326 
Q 2575 -91 1722 -91 
Q 1428 -91 1123 -41 
Q 819 9 494 109 
L 494 744 
Q 775 591 1075 516 
Q 1375 441 1709 441 
Q 2250 441 2565 725 
Q 2881 1009 2881 1497 
Q 2881 1984 2565 2268 
Q 2250 2553 1709 2553 
Q 1456 2553 1204 2497 
Q 953 2441 691 2322 
L 691 4666 
z
" transform="scale(0.015625)"/>
     </defs>
     <use xlink:href="#DejaVuSans-30"/>
     <use xlink:href="#DejaVuSans-2e" x="63.623047"/>
     <use xlink:href="#DejaVuSans-35" x="95.410156"/>
    </g>
   </g>
   <g id="text_6">
    <!-- 0.5 -->
    <g transform="translate(454.106562 304.870625)scale(0.22 -0.22)">
     <use xlink:href="#DejaVuSans-30"/>
     <use xlink:href="#DejaVuSans-2e" x="63.623047"/>
     <use xlink:href="#DejaVuSans-35" x="95.410156"/>
    </g>
   </g>
   <g id="text_7">
    <!-- 1.0 -->
    <g transform="translate(126.506563 31.270625)scale(0.22 -0.22)">
     <use xlink:href="#DejaVuSans-31"/>
     <use xlink:href="#DejaVuSans-2e" x="63.623047"/>
     <use xlink:href="#DejaVuSans-30" x="95.410156"/>
    </g>
   </g>
  </g>
 </g>
 <defs>
  <clipPath id="p6759017d0f">
   <rect x="0" y="0" width="720" height="432"/>
  </clipPath>
 </defs>
</svg>
