<?xml version="1.0" encoding="utf-8" standalone="no"?>
<!DOCTYPE svg PUBLIC "-//W3C//DTD SVG 1.1//EN"
  "http://www.w3.org/Graphics/SVG/1.1/DTD/svg11.dtd">
<svg xmlns:xlink="http://www.w3.org/1999/xlink" width="720pt" height="288pt" viewBox="0 0 720 288" xmlns="http://www.w3.org/2000/svg" version="1.1">
 <metadata>
  <rdf:RDF xmlns:dc="http://purl.org/dc/elements/1.1/" xmlns:cc="http://creativecommons.org/ns#" xmlns:rdf="http://www.w3.org/1999/02/22-rdf-syntax-ns#">
   <cc:Work>
    <dc:type rdf:resource="http://purl.org/dc/dcmitype/StillImage"/>
    <dc:date>2025-05-08T22:24:01.581343</dc:date>
    <dc:format>image/svg+xml</dc:format>
    <dc:creator>
     <cc:Agent>
      <dc:title>Matplotlib v3.5.3, https://matplotlib.org/</dc:title>
     </cc:Agent>
    </dc:creator>
   </cc:Work>
  </rdf:RDF>
 </metadata>
 <defs>
  <style type="text/css">*{stroke-linejoin: round; stroke-linecap: butt}</style>
 </defs>
 <g id="figure_1">
  <g id="patch_1">
   <path d="M 0 288 
L 720 288 
L 720 0 
L 0 0 
z
" style="fill: #ffffff"/>
  </g>
  <g id="axes_1">
   <g id="PatchCollection_1">
    <defs>
     <path id="md8ccf22ab8" d="M 72 -108 
C 81.547312 -108 90.704875 -111.793187 97.455844 -118.544156 
C 104.206813 -125.295125 108 -134.452688 108 -144 
C 108 -153.547312 104.206813 -162.704875 97.455844 -169.455844 
C 90.704875 -176.206813 81.547312 -180 72 -180 
C 62.452688 -180 53.295125 -176.206813 46.544156 -169.455844 
C 39.793187 -162.704875 36 -153.547312 36 -144 
C 36 -134.452688 39.793187 -125.295125 46.544156 -118.544156 
C 53.295125 -111.793187 62.452688 -108 72 -108 
z
" style="stroke: #e6e6e6"/>
    </defs>
    <g clip-path="url(#pbca72de48b)">
     <use xlink:href="#md8ccf22ab8" x="0" y="288" style="fill: #2693de; stroke: #e6e6e6"/>
    </g>
   </g>
   <g id="PatchCollection_2">
    <defs>
     <path id="me822be546b" d="M 648 -108 
C 657.547312 -108 666.704875 -111.793187 673.455844 -118.544156 
C 680.206813 -125.295125 684 -134.452688 684 -144 
C 684 -153.547312 680.206813 -162.704875 673.455844 -169.455844 
C 666.704875 -176.206813 657.547312 -180 648 -180 
C 638.452688 -180 629.295125 -176.206813 622.544156 -169.455844 
C 615.793187 -162.704875 612 -153.547312 612 -144 
C 612 -134.452688 615.793187 -125.295125 622.544156 -118.544156 
C 629.295125 -111.793187 638.452688 -108 648 -108 
z
" style="stroke: #e6e6e6"/>
    </defs>
    <g clip-path="url(#pbca72de48b)">
     <use xlink:href="#me822be546b" x="0" y="288" style="fill: #2693de; stroke: #e6e6e6"/>
    </g>
   </g>
   <g id="PatchCollection_3">
    <defs>
     <path id="m472c22fd1e" d="M 615.6 -158.4 
L 594 -151.2 
L 594 -157.32 
L 108 -157.32 
L 108 -159.48 
L 594 -159.48 
L 594 -165.6 
z
" style="stroke: #a3a3a3"/>
    </defs>
    <g clip-path="url(#pbca72de48b)">
     <use xlink:href="#m472c22fd1e" x="0" y="288" style="fill: #a3a3a3; stroke: #a3a3a3"/>
    </g>
   </g>
   <g id="PatchCollection_4">
    <path d="M 679.176915 126 
C 681.937772 121.218054 683.561784 115.864405 683.922921 110.354513 
C 684.284059 104.84462 683.372732 99.324796 681.259663 94.223396 
C 679.146594 89.121997 675.887895 84.574487 671.736449 80.933767 
C 667.585004 77.293047 662.651053 74.655795 657.317486 73.22667 
C 651.983918 71.797545 646.392365 71.614497 640.976748 72.69173 
C 635.561131 73.768963 630.46526 76.077873 626.084589 79.43928 
C 621.703917 82.800687 618.154773 87.125331 615.712581 92.077607 
C 613.270389 97.029883 612 102.478285 612 108 
L 614.16 108 
C 614.16 102.809588 615.354166 97.68809 617.649826 93.032951 
C 619.945487 88.377811 623.281682 84.312646 627.399513 81.152923 
C 631.517344 77.9932 636.307464 75.822825 641.398144 74.810226 
C 646.488823 73.797627 651.744883 73.969692 656.758436 75.31307 
C 661.77199 76.656448 666.409904 79.135464 670.312262 82.557741 
C 674.214621 85.980018 677.277799 90.254677 679.264083 95.049993 
C 681.250368 99.845308 682.107015 105.033943 681.767546 110.213242 
C 681.428077 115.392541 679.901506 120.424971 677.3063 124.92 
L 679.176915 126 
z
" clip-path="url(#pbca72de48b)" style="fill: #a3a3a3; stroke: #a3a3a3"/>
    <path d="M 598.68 108 
L 627.48 108 
L 613.08 118.8 
z
" clip-path="url(#pbca72de48b)" style="fill: #a3a3a3; stroke: #a3a3a3"/>
   </g>
   <g id="text_1">
    <!-- 8 -->
    <g style="fill: #ffffff" transform="translate(65.00125 150.070625)scale(0.22 -0.22)">
     <defs>
      <path id="DejaVuSans-38" d="M 2034 2216 
Q 1584 2216 1326 1975 
Q 1069 1734 1069 1313 
Q 1069 891 1326 650 
Q 1584 409 2034 409 
Q 2484 409 2743 651 
Q 3003 894 3003 1313 
Q 3003 1734 2745 1975 
Q 2488 2216 2034 2216 
z
M 1403 2484 
Q 997 2584 770 2862 
Q 544 3141 544 3541 
Q 544 4100 942 4425 
Q 1341 4750 2034 4750 
Q 2731 4750 3128 4425 
Q 3525 4100 3525 3541 
Q 3525 3141 3298 2862 
Q 3072 2584 2669 2484 
Q 3125 2378 3379 2068 
Q 3634 1759 3634 1313 
Q 3634 634 3220 271 
Q 2806 -91 2034 -91 
Q 1263 -91 848 271 
Q 434 634 434 1313 
Q 434 1759 690 2068 
Q 947 2378 1403 2484 
z
M 1172 3481 
Q 1172 3119 1398 2916 
Q 1625 2713 2034 2713 
Q 2441 2713 2670 2916 
Q 2900 3119 2900 3481 
Q 2900 3844 2670 4047 
Q 2441 4250 2034 4250 
Q 1625 4250 1398 4047 
Q 1172 3844 1172 3481 
z
" transform="scale(0.015625)"/>
     </defs>
     <use xlink:href="#DejaVuSans-38"/>
    </g>
   </g>
   <g id="text_2">
    <!-- 131 -->
    <g transform="translate(625.039219 150.070625)scale(0.22 -0.22)">
     <defs>
      <path id="DejaVuSans-Bold-31" d="M 750 831 
L 1813 831 
L 1813 3847 
L 722 3622 
L 722 4441 
L 1806 4666 
L 2950 4666 
L 2950 831 
L 4013 831 
L 4013 0 
L 750 0 
L 750 831 
z
" transform="scale(0.015625)"/>
      <path id="DejaVuSans-Bold-33" d="M 2981 2516 
Q 3453 2394 3698 2092 
Q 3944 1791 3944 1325 
Q 3944 631 3412 270 
Q 2881 -91 1863 -91 
Q 1503 -91 1142 -33 
Q 781 25 428 141 
L 428 1069 
Q 766 900 1098 814 
Q 1431 728 1753 728 
Q 2231 728 2486 893 
Q 2741 1059 2741 1369 
Q 2741 1688 2480 1852 
Q 2219 2016 1709 2016 
L 1228 2016 
L 1228 2791 
L 1734 2791 
Q 2188 2791 2409 2933 
Q 2631 3075 2631 3366 
Q 2631 3634 2415 3781 
Q 2200 3928 1806 3928 
Q 1516 3928 1219 3862 
Q 922 3797 628 3669 
L 628 4550 
Q 984 4650 1334 4700 
Q 1684 4750 2022 4750 
Q 2931 4750 3382 4451 
Q 3834 4153 3834 3553 
Q 3834 3144 3618 2883 
Q 3403 2622 2981 2516 
z
" transform="scale(0.015625)"/>
     </defs>
     <use xlink:href="#DejaVuSans-Bold-31"/>
     <use xlink:href="#DejaVuSans-Bold-33" x="69.580078"/>
     <use xlink:href="#DejaVuSans-Bold-31" x="139.160156"/>
    </g>
   </g>
   <g id="text_3">
    <!-- 1.0 -->
    <g transform="translate(187.706563 135.670625)scale(0.22 -0.22)">
     <defs>
      <path id="DejaVuSans-31" d="M 794 531 
L 1825 531 
L 1825 4091 
L 703 3866 
L 703 4441 
L 1819 4666 
L 2450 4666 
L 2450 531 
L 3481 531 
L 3481 0 
L 794 0 
L 794 531 
z
" transform="scale(0.015625)"/>
      <path id="DejaVuSans-2e" d="M 684 794 
L 1344 794 
L 1344 0 
L 684 0 
L 684 794 
z
" transform="scale(0.015625)"/>
      <path id="DejaVuSans-30" d="M 2034 4250 
Q 1547 4250 1301 3770 
Q 1056 3291 1056 2328 
Q 1056 1369 1301 889 
Q 1547 409 2034 409 
Q 2525 409 2770 889 
Q 3016 1369 3016 2328 
Q 3016 3291 2770 3770 
Q 2525 4250 2034 4250 
z
M 2034 4750 
Q 2819 4750 3233 4129 
Q 3647 3509 3647 2328 
Q 3647 1150 3233 529 
Q 2819 -91 2034 -91 
Q 1250 -91 836 529 
Q 422 1150 422 2328 
Q 422 3509 836 4129 
Q 1250 4750 2034 4750 
z
" transform="scale(0.015625)"/>
     </defs>
     <use xlink:href="#DejaVuSans-31"/>
     <use xlink:href="#DejaVuSans-2e" x="63.623047"/>
     <use xlink:href="#DejaVuSans-30" x="95.410156"/>
    </g>
   </g>
   <g id="text_4">
    <!-- 1.0 -->
    <g transform="translate(630.506562 103.270625)scale(0.22 -0.22)">
     <use xlink:href="#DejaVuSans-31"/>
     <use xlink:href="#DejaVuSans-2e" x="63.623047"/>
     <use xlink:href="#DejaVuSans-30" x="95.410156"/>
    </g>
   </g>
  </g>
 </g>
 <defs>
  <clipPath id="pbca72de48b">
   <rect x="0" y="0" width="720" height="288"/>
  </clipPath>
 </defs>
</svg>
