<?xml version="1.0" encoding="utf-8" standalone="no"?>
<!DOCTYPE svg PUBLIC "-//W3C//DTD SVG 1.1//EN"
  "http://www.w3.org/Graphics/SVG/1.1/DTD/svg11.dtd">
<svg xmlns:xlink="http://www.w3.org/1999/xlink" width="720pt" height="432pt" viewBox="0 0 720 432" xmlns="http://www.w3.org/2000/svg" version="1.1">
 <metadata>
  <rdf:RDF xmlns:dc="http://purl.org/dc/elements/1.1/" xmlns:cc="http://creativecommons.org/ns#" xmlns:rdf="http://www.w3.org/1999/02/22-rdf-syntax-ns#">
   <cc:Work>
    <dc:type rdf:resource="http://purl.org/dc/dcmitype/StillImage"/>
    <dc:date>2025-05-08T22:24:03.069113</dc:date>
    <dc:format>image/svg+xml</dc:format>
    <dc:creator>
     <cc:Agent>
      <dc:title>Matplotlib v3.5.3, https://matplotlib.org/</dc:title>
     </cc:Agent>
    </dc:creator>
   </cc:Work>
  </rdf:RDF>
 </metadata>
 <defs>
  <style type="text/css">*{stroke-linejoin: round; stroke-linecap: butt}</style>
 </defs>
 <g id="figure_1">
  <g id="patch_1">
   <path d="M 0 432 
L 720 432 
L 720 0 
L 0 0 
z
" style="fill: #ffffff"/>
  </g>
  <g id="axes_1">
   <g id="PatchCollection_1">
    <defs>
     <path id="m9598961eda" d="M 144 -36 
C 153.547312 -36 162.704875 -39.793187 169.455844 -46.544156 
C 176.206813 -53.295125 180 -62.452688 180 -72 
C 180 -81.547312 176.206813 -90.704875 169.455844 -97.455844 
C 162.704875 -104.206813 153.547312 -108 144 -108 
C 134.452688 -108 125.295125 -104.206813 118.544156 -97.455844 
C 111.793187 -90.704875 108 -81.547312 108 -72 
C 108 -62.452688 111.793187 -53.295125 118.544156 -46.544156 
C 125.295125 -39.793187 134.452688 -36 144 -36 
z
" style="stroke: #e6e6e6"/>
    </defs>
    <g clip-path="url(#p0fa140c177)">
     <use xlink:href="#m9598961eda" x="0" y="432" style="fill: #2693de; stroke: #e6e6e6"/>
    </g>
   </g>
   <g id="PatchCollection_2">
    <defs>
     <path id="m666030bae2" d="M 576 -36 
C 585.547312 -36 594.704875 -39.793187 601.455844 -46.544156 
C 608.206813 -53.295125 612 -62.452688 612 -72 
C 612 -81.547312 608.206813 -90.704875 601.455844 -97.455844 
C 594.704875 -104.206813 585.547312 -108 576 -108 
C 566.452688 -108 557.295125 -104.206813 550.544156 -97.455844 
C 543.793187 -90.704875 540 -81.547312 540 -72 
C 540 -62.452688 543.793187 -53.295125 550.544156 -46.544156 
C 557.295125 -39.793187 566.452688 -36 576 -36 
z
" style="stroke: #e6e6e6"/>
    </defs>
    <g clip-path="url(#p0fa140c177)">
     <use xlink:href="#m666030bae2" x="0" y="432" style="fill: #2693de; stroke: #e6e6e6"/>
    </g>
   </g>
   <g id="PatchCollection_3">
    <defs>
     <path id="m7cab08fb6c" d="M 144 -324 
C 153.547312 -324 162.704875 -327.793187 169.455844 -334.544156 
C 176.206813 -341.295125 180 -350.452688 180 -360 
C 180 -369.547312 176.206813 -378.704875 169.455844 -385.455844 
C 162.704875 -392.206813 153.547312 -396 144 -396 
C 134.452688 -396 125.295125 -392.206813 118.544156 -385.455844 
C 111.793187 -378.704875 108 -369.547312 108 -360 
C 108 -350.452688 111.793187 -341.295125 118.544156 -334.544156 
C 125.295125 -327.793187 134.452688 -324 144 -324 
z
" style="stroke: #e6e6e6"/>
    </defs>
    <g clip-path="url(#p0fa140c177)">
     <use xlink:href="#m7cab08fb6c" x="0" y="432" style="fill: #2693de; stroke: #e6e6e6"/>
    </g>
   </g>
   <g id="PatchCollection_4">
    <defs>
     <path id="m4015e959ca" d="M 543.6 -86.4 
L 522 -79.2 
L 522 -85.32 
L 180 -85.32 
L 180 -87.48 
L 522 -87.48 
L 522 -93.6 
z
" style="stroke: #a3a3a3"/>
    </defs>
    <g clip-path="url(#p0fa140c177)">
     <use xlink:href="#m4015e959ca" x="0" y="432" style="fill: #a3a3a3; stroke: #a3a3a3"/>
    </g>
   </g>
   <g id="PatchCollection_5">
    <defs>
     <path id="m3078168794" d="M 179.306792 -302.422383 
L 201.607461 -297.831069 
L 198.541119 -292.53466 
L 540.541119 -94.53466 
L 539.458881 -92.66534 
L 197.458881 -290.66534 
L 194.392539 -285.368931 
z
" style="stroke: #a3a3a3"/>
    </defs>
    <g clip-path="url(#p0fa140c177)">
     <use xlink:href="#m3078168794" x="0" y="432" style="fill: #a3a3a3; stroke: #a3a3a3"/>
    </g>
   </g>
   <g id="PatchCollection_6">
    <path d="M 175.176915 54 
C 177.937772 49.218054 179.561784 43.864405 179.922921 38.354513 
C 180.284059 32.84462 179.372732 27.324796 177.259663 22.223396 
C 175.146594 17.121997 171.887895 12.574487 167.736449 8.933767 
C 163.585004 5.293047 158.651053 2.655795 153.317486 1.22667 
C 147.983918 -0.202455 142.392365 -0.385503 136.976748 0.69173 
C 131.561131 1.768963 126.46526 4.077873 122.084589 7.43928 
C 117.703917 10.800687 114.154773 15.125331 111.712581 20.077607 
C 109.270389 25.029883 108 30.478285 108 36 
L 110.16 36 
C 110.16 30.809588 111.354166 25.68809 113.649826 21.032951 
C 115.945487 16.377811 119.281682 12.312646 123.399513 9.152923 
C 127.517344 5.9932 132.307464 3.822825 137.398144 2.810226 
C 142.488823 1.797627 147.744883 1.969692 152.758436 3.31307 
C 157.77199 4.656448 162.409904 7.135464 166.312262 10.557741 
C 170.214621 13.980018 173.277799 18.254677 175.264083 23.049993 
C 177.250368 27.845308 178.107015 33.033943 177.767546 38.213242 
C 177.428077 43.392541 175.901506 48.424971 173.3063 52.92 
L 175.176915 54 
z
" clip-path="url(#p0fa140c177)" style="fill: #a3a3a3; stroke: #a3a3a3"/>
    <path d="M 94.68 36 
L 123.48 36 
L 109.08 46.8 
z
" clip-path="url(#p0fa140c177)" style="fill: #a3a3a3; stroke: #a3a3a3"/>
   </g>
   <g id="text_1">
    <!-- 8 -->
    <g style="fill: #ffffff" transform="translate(137.00125 366.070625)scale(0.22 -0.22)">
     <defs>
      <path id="DejaVuSans-38" d="M 2034 2216 
Q 1584 2216 1326 1975 
Q 1069 1734 1069 1313 
Q 1069 891 1326 650 
Q 1584 409 2034 409 
Q 2484 409 2743 651 
Q 3003 894 3003 1313 
Q 3003 1734 2745 1975 
Q 2488 2216 2034 2216 
z
M 1403 2484 
Q 997 2584 770 2862 
Q 544 3141 544 3541 
Q 544 4100 942 4425 
Q 1341 4750 2034 4750 
Q 2731 4750 3128 4425 
Q 3525 4100 3525 3541 
Q 3525 3141 3298 2862 
Q 3072 2584 2669 2484 
Q 3125 2378 3379 2068 
Q 3634 1759 3634 1313 
Q 3634 634 3220 271 
Q 2806 -91 2034 -91 
Q 1263 -91 848 271 
Q 434 634 434 1313 
Q 434 1759 690 2068 
Q 947 2378 1403 2484 
z
M 1172 3481 
Q 1172 3119 1398 2916 
Q 1625 2713 2034 2713 
Q 2441 2713 2670 2916 
Q 2900 3119 2900 3481 
Q 2900 3844 2670 4047 
Q 2441 4250 2034 4250 
Q 1625 4250 1398 4047 
Q 1172 3844 1172 3481 
z
" transform="scale(0.015625)"/>
     </defs>
     <use xlink:href="#DejaVuSans-38"/>
    </g>
   </g>
   <g id="text_2">
    <!-- 131 -->
    <g style="fill: #ffffff" transform="translate(555.00375 366.070625)scale(0.22 -0.22)">
     <defs>
      <path id="DejaVuSans-31" d="M 794 531 
L 1825 531 
L 1825 4091 
L 703 3866 
L 703 4441 
L 1819 4666 
L 2450 4666 
L 2450 531 
L 3481 531 
L 3481 0 
L 794 0 
L 794 531 
z
" transform="scale(0.015625)"/>
      <path id="DejaVuSans-33" d="M 2597 2516 
Q 3050 2419 3304 2112 
Q 3559 1806 3559 1356 
Q 3559 666 3084 287 
Q 2609 -91 1734 -91 
Q 1441 -91 1130 -33 
Q 819 25 488 141 
L 488 750 
Q 750 597 1062 519 
Q 1375 441 1716 441 
Q 2309 441 2620 675 
Q 2931 909 2931 1356 
Q 2931 1769 2642 2001 
Q 2353 2234 1838 2234 
L 1294 2234 
L 1294 2753 
L 1863 2753 
Q 2328 2753 2575 2939 
Q 2822 3125 2822 3475 
Q 2822 3834 2567 4026 
Q 2313 4219 1838 4219 
Q 1578 4219 1281 4162 
Q 984 4106 628 3988 
L 628 4550 
Q 988 4650 1302 4700 
Q 1616 4750 1894 4750 
Q 2613 4750 3031 4423 
Q 3450 4097 3450 3541 
Q 3450 3153 3228 2886 
Q 3006 2619 2597 2516 
z
" transform="scale(0.015625)"/>
     </defs>
     <use xlink:href="#DejaVuSans-31"/>
     <use xlink:href="#DejaVuSans-33" x="63.623047"/>
     <use xlink:href="#DejaVuSans-31" x="127.246094"/>
    </g>
   </g>
   <g id="text_3">
    <!-- 962 -->
    <g transform="translate(121.039219 78.070625)scale(0.22 -0.22)">
     <defs>
      <path id="DejaVuSans-Bold-39" d="M 641 103 
L 641 966 
Q 928 831 1190 764 
Q 1453 697 1709 697 
Q 2247 697 2547 995 
Q 2847 1294 2900 1881 
Q 2688 1725 2447 1647 
Q 2206 1569 1925 1569 
Q 1209 1569 770 1986 
Q 331 2403 331 3084 
Q 331 3838 820 4291 
Q 1309 4744 2131 4744 
Q 3044 4744 3544 4128 
Q 4044 3513 4044 2388 
Q 4044 1231 3459 570 
Q 2875 -91 1856 -91 
Q 1528 -91 1228 -42 
Q 928 6 641 103 
z
M 2125 2350 
Q 2441 2350 2600 2554 
Q 2759 2759 2759 3169 
Q 2759 3575 2600 3781 
Q 2441 3988 2125 3988 
Q 1809 3988 1650 3781 
Q 1491 3575 1491 3169 
Q 1491 2759 1650 2554 
Q 1809 2350 2125 2350 
z
" transform="scale(0.015625)"/>
      <path id="DejaVuSans-Bold-36" d="M 2316 2303 
Q 2000 2303 1842 2098 
Q 1684 1894 1684 1484 
Q 1684 1075 1842 870 
Q 2000 666 2316 666 
Q 2634 666 2792 870 
Q 2950 1075 2950 1484 
Q 2950 1894 2792 2098 
Q 2634 2303 2316 2303 
z
M 3803 4544 
L 3803 3681 
Q 3506 3822 3243 3889 
Q 2981 3956 2731 3956 
Q 2194 3956 1894 3657 
Q 1594 3359 1544 2772 
Q 1750 2925 1990 3001 
Q 2231 3078 2516 3078 
Q 3231 3078 3670 2659 
Q 4109 2241 4109 1563 
Q 4109 813 3618 361 
Q 3128 -91 2303 -91 
Q 1394 -91 895 523 
Q 397 1138 397 2266 
Q 397 3422 980 4083 
Q 1563 4744 2578 4744 
Q 2900 4744 3203 4694 
Q 3506 4644 3803 4544 
z
" transform="scale(0.015625)"/>
      <path id="DejaVuSans-Bold-32" d="M 1844 884 
L 3897 884 
L 3897 0 
L 506 0 
L 506 884 
L 2209 2388 
Q 2438 2594 2547 2791 
Q 2656 2988 2656 3200 
Q 2656 3528 2436 3728 
Q 2216 3928 1850 3928 
Q 1569 3928 1234 3808 
Q 900 3688 519 3450 
L 519 4475 
Q 925 4609 1322 4679 
Q 1719 4750 2100 4750 
Q 2938 4750 3402 4381 
Q 3866 4013 3866 3353 
Q 3866 2972 3669 2642 
Q 3472 2313 2841 1759 
L 1844 884 
z
" transform="scale(0.015625)"/>
     </defs>
     <use xlink:href="#DejaVuSans-Bold-39"/>
     <use xlink:href="#DejaVuSans-Bold-36" x="69.580078"/>
     <use xlink:href="#DejaVuSans-Bold-32" x="139.160156"/>
    </g>
   </g>
   <g id="text_4">
    <!-- 1.0 -->
    <g transform="translate(230.906563 351.670625)scale(0.22 -0.22)">
     <defs>
      <path id="DejaVuSans-2e" d="M 684 794 
L 1344 794 
L 1344 0 
L 684 0 
L 684 794 
z
" transform="scale(0.015625)"/>
      <path id="DejaVuSans-30" d="M 2034 4250 
Q 1547 4250 1301 3770 
Q 1056 3291 1056 2328 
Q 1056 1369 1301 889 
Q 1547 409 2034 409 
Q 2525 409 2770 889 
Q 3016 1369 3016 2328 
Q 3016 3291 2770 3770 
Q 2525 4250 2034 4250 
z
M 2034 4750 
Q 2819 4750 3233 4129 
Q 3647 3509 3647 2328 
Q 3647 1150 3233 529 
Q 2819 -91 2034 -91 
Q 1250 -91 836 529 
Q 422 1150 422 2328 
Q 422 3509 836 4129 
Q 1250 4750 2034 4750 
z
" transform="scale(0.015625)"/>
     </defs>
     <use xlink:href="#DejaVuSans-31"/>
     <use xlink:href="#DejaVuSans-2e" x="63.623047"/>
     <use xlink:href="#DejaVuSans-30" x="95.410156"/>
    </g>
   </g>
   <g id="text_5">
    <!-- 1.0 -->
    <g transform="translate(454.106562 304.870625)scale(0.22 -0.22)">
     <use xlink:href="#DejaVuSans-31"/>
     <use xlink:href="#DejaVuSans-2e" x="63.623047"/>
     <use xlink:href="#DejaVuSans-30" x="95.410156"/>
    </g>
   </g>
   <g id="text_6">
    <!-- 1.0 -->
    <g transform="translate(126.506563 31.270625)scale(0.22 -0.22)">
     <use xlink:href="#DejaVuSans-31"/>
     <use xlink:href="#DejaVuSans-2e" x="63.623047"/>
     <use xlink:href="#DejaVuSans-30" x="95.410156"/>
    </g>
   </g>
  </g>
 </g>
 <defs>
  <clipPath id="p0fa140c177">
   <rect x="0" y="0" width="720" height="432"/>
  </clipPath>
 </defs>
</svg>
